<svg xmlns="http://www.w3.org/2000/svg" xmlns:xlink="http://www.w3.org/1999/xlink" width="500" height="500" preserveAspectRatio="xMidYMid meet" version="1.0" viewBox="0 0 375 375" zoomAndPan="magnify"><rect width="450" height="450" x="-37.5" y="-37.5" fill="#fff" fill-opacity="1"/><rect width="450" height="450" x="-37.5" y="-37.5" fill="#1f0322" fill-opacity="1"/><g fill="#fff" fill-opacity="1"><g><g><path d="M 21.578125 -60.625 C 24.390625 -60.625 26.523438 -60.300781 27.984375 -59.65625 C 29.453125 -59.007812 30.75 -58.289062 31.875 -57.5 C 32.539062 -57.101562 33.082031 -56.804688 33.5 -56.609375 C 33.925781 -56.421875 34.335938 -56.328125 34.734375 -56.328125 C 35.296875 -56.328125 35.703125 -56.632812 35.953125 -57.25 C 36.210938 -57.863281 36.425781 -58.789062 36.59375 -60.03125 L 38.53125 -60.03125 C 38.476562 -59.070312 38.40625 -57.929688 38.3125 -56.609375 C 38.226562 -55.296875 38.171875 -53.554688 38.140625 -51.390625 C 38.117188 -49.222656 38.109375 -46.367188 38.109375 -42.828125 L 36.171875 -42.828125 C 36.003906 -45.523438 35.410156 -48.109375 34.390625 -50.578125 C 33.378906 -53.054688 31.90625 -55.082031 29.96875 -56.65625 C 28.03125 -58.226562 25.488281 -59.015625 22.34375 -59.015625 C 19.363281 -59.015625 16.90625 -58.113281 14.96875 -56.3125 C 13.03125 -54.519531 12.0625 -52.160156 12.0625 -49.234375 C 12.0625 -46.703125 12.707031 -44.578125 14 -42.859375 C 15.289062 -41.148438 17.015625 -39.609375 19.171875 -38.234375 C 21.335938 -36.859375 23.6875 -35.382812 26.21875 -33.8125 C 29.144531 -32.007812 31.742188 -30.222656 34.015625 -28.453125 C 36.296875 -26.679688 38.09375 -24.726562 39.40625 -22.59375 C 40.726562 -20.457031 41.390625 -17.875 41.390625 -14.84375 C 41.390625 -11.238281 40.570312 -8.253906 38.9375 -5.890625 C 37.3125 -3.535156 35.148438 -1.765625 32.453125 -0.578125 C 29.753906 0.597656 26.773438 1.1875 23.515625 1.1875 C 20.535156 1.1875 18.175781 0.847656 16.4375 0.171875 C 14.695312 -0.503906 13.207031 -1.207031 11.96875 -1.9375 C 10.738281 -2.726562 9.785156 -3.125 9.109375 -3.125 C 8.546875 -3.125 8.132812 -2.8125 7.875 -2.1875 C 7.625 -1.570312 7.414062 -0.644531 7.25 0.59375 L 5.3125 0.59375 C 5.425781 -0.59375 5.492188 -1.984375 5.515625 -3.578125 C 5.546875 -5.179688 5.578125 -7.273438 5.609375 -9.859375 C 5.640625 -12.453125 5.65625 -15.710938 5.65625 -19.640625 L 7.59375 -19.640625 C 7.8125 -16.273438 8.441406 -13.128906 9.484375 -10.203125 C 10.523438 -7.273438 12.125 -4.925781 14.28125 -3.15625 C 16.445312 -1.382812 19.332031 -0.5 22.9375 -0.5 C 24.789062 -0.5 26.546875 -0.878906 28.203125 -1.640625 C 29.859375 -2.398438 31.21875 -3.609375 32.28125 -5.265625 C 33.351562 -6.921875 33.890625 -9.070312 33.890625 -11.71875 C 33.890625 -14.019531 33.34375 -16.023438 32.25 -17.734375 C 31.15625 -19.453125 29.625 -21.054688 27.65625 -22.546875 C 25.6875 -24.035156 23.378906 -25.570312 20.734375 -27.15625 C 18.097656 -28.78125 15.625 -30.4375 13.3125 -32.125 C 11.007812 -33.8125 9.171875 -35.765625 7.796875 -37.984375 C 6.421875 -40.203125 5.734375 -42.882812 5.734375 -46.03125 C 5.734375 -49.351562 6.476562 -52.09375 7.96875 -54.25 C 9.457031 -56.414062 11.410156 -58.019531 13.828125 -59.0625 C 16.242188 -60.101562 18.828125 -60.625 21.578125 -60.625 Z M 21.578125 -60.625" transform="translate(36.625309, 193.944548)"/></g></g></g><g fill="#fff" fill-opacity="1"><g><g><path d="M 49.90625 -59.6875 C 49.6875 -57.550781 49.535156 -55.484375 49.453125 -53.484375 C 49.367188 -51.492188 49.328125 -49.96875 49.328125 -48.90625 C 49.328125 -47.550781 49.351562 -46.285156 49.40625 -45.109375 C 49.457031 -43.929688 49.515625 -42.890625 49.578125 -41.984375 L 47.640625 -41.984375 C 47.242188 -45.921875 46.707031 -49.023438 46.03125 -51.296875 C 45.351562 -53.578125 44.171875 -55.222656 42.484375 -56.234375 C 40.804688 -57.242188 38.195312 -57.75 34.65625 -57.75 L 30.09375 -57.75 L 30.09375 -9.78125 C 30.09375 -7.53125 30.300781 -5.84375 30.71875 -4.71875 C 31.144531 -3.59375 31.976562 -2.832031 33.21875 -2.4375 C 34.457031 -2.050781 36.253906 -1.800781 38.609375 -1.6875 L 38.609375 0 C 37.148438 -0.113281 35.296875 -0.179688 33.046875 -0.203125 C 30.796875 -0.234375 28.519531 -0.25 26.21875 -0.25 C 23.6875 -0.25 21.3125 -0.234375 19.09375 -0.203125 C 16.875 -0.179688 15.09375 -0.113281 13.75 0 L 13.75 -1.6875 C 16.101562 -1.800781 17.898438 -2.050781 19.140625 -2.4375 C 20.378906 -2.832031 21.207031 -3.59375 21.625 -4.71875 C 22.050781 -5.84375 22.265625 -7.53125 22.265625 -9.78125 L 22.265625 -57.75 L 17.703125 -57.75 C 14.222656 -57.75 11.625 -57.242188 9.90625 -56.234375 C 8.1875 -55.222656 6.988281 -53.578125 6.3125 -51.296875 C 5.644531 -49.023438 5.113281 -45.921875 4.71875 -41.984375 L 2.78125 -41.984375 C 2.894531 -42.890625 2.960938 -43.929688 2.984375 -45.109375 C 3.015625 -46.285156 3.03125 -47.550781 3.03125 -48.90625 C 3.03125 -49.96875 2.988281 -51.492188 2.90625 -53.484375 C 2.820312 -55.484375 2.664062 -57.550781 2.4375 -59.6875 C 4.800781 -59.632812 7.375 -59.578125 10.15625 -59.515625 C 12.9375 -59.460938 15.734375 -59.4375 18.546875 -59.4375 C 21.359375 -59.4375 23.914062 -59.4375 26.21875 -59.4375 C 28.519531 -59.4375 31.0625 -59.4375 33.84375 -59.4375 C 36.632812 -59.4375 39.429688 -59.460938 42.234375 -59.515625 C 45.046875 -59.578125 47.601562 -59.632812 49.90625 -59.6875 Z M 49.90625 -59.6875" transform="translate(80.466354, 193.944548)"/></g></g></g><g fill="#fff" fill-opacity="1"><g><g><path d="M 27.234375 -60.109375 L 47.8125 -7.078125 C 48.644531 -4.941406 49.597656 -3.519531 50.671875 -2.8125 C 51.742188 -2.113281 52.726562 -1.738281 53.625 -1.6875 L 53.625 0 C 52.5 -0.113281 51.117188 -0.179688 49.484375 -0.203125 C 47.859375 -0.234375 46.226562 -0.25 44.59375 -0.25 C 42.40625 -0.25 40.351562 -0.234375 38.4375 -0.203125 C 36.53125 -0.179688 34.988281 -0.113281 33.8125 0 L 33.8125 -1.6875 C 36.675781 -1.800781 38.5 -2.289062 39.28125 -3.15625 C 40.070312 -4.03125 39.90625 -5.898438 38.78125 -8.765625 L 23.109375 -50.671875 L 24.453125 -51.765625 L 9.78125 -13.65625 C 8.882812 -11.40625 8.347656 -9.507812 8.171875 -7.96875 C 8.003906 -6.425781 8.160156 -5.203125 8.640625 -4.296875 C 9.117188 -3.398438 9.929688 -2.753906 11.078125 -2.359375 C 12.234375 -1.960938 13.679688 -1.738281 15.421875 -1.6875 L 15.421875 0 C 13.847656 -0.113281 12.203125 -0.179688 10.484375 -0.203125 C 8.773438 -0.234375 7.191406 -0.25 5.734375 -0.25 C 4.328125 -0.25 3.128906 -0.234375 2.140625 -0.203125 C 1.160156 -0.179688 0.25 -0.113281 -0.59375 0 L -0.59375 -1.6875 C 0.53125 -1.96875 1.679688 -2.628906 2.859375 -3.671875 C 4.046875 -4.710938 5.117188 -6.492188 6.078125 -9.015625 L 25.890625 -60.109375 C 26.109375 -60.109375 26.328125 -60.109375 26.546875 -60.109375 C 26.773438 -60.109375 27.003906 -60.109375 27.234375 -60.109375 Z M 37.515625 -24.28125 L 37.515625 -22.59375 L 12.390625 -22.59375 L 13.234375 -24.28125 Z M 37.515625 -24.28125" transform="translate(131.136497, 193.944548)"/></g></g></g><g fill="#fff" fill-opacity="1"><g><g><path d="M 31.28125 -60.875 C 34.988281 -60.875 38.035156 -60.320312 40.421875 -59.21875 C 42.816406 -58.125 44.941406 -56.847656 46.796875 -55.390625 C 47.921875 -54.546875 48.773438 -54.445312 49.359375 -55.09375 C 49.953125 -55.738281 50.363281 -57.269531 50.59375 -59.6875 L 52.53125 -59.6875 C 52.414062 -57.613281 52.328125 -55.085938 52.265625 -52.109375 C 52.210938 -49.128906 52.1875 -45.191406 52.1875 -40.296875 L 50.25 -40.296875 C 49.851562 -42.710938 49.484375 -44.640625 49.140625 -46.078125 C 48.804688 -47.515625 48.398438 -48.738281 47.921875 -49.75 C 47.453125 -50.757812 46.820312 -51.769531 46.03125 -52.78125 C 44.289062 -55.082031 42.097656 -56.753906 39.453125 -57.796875 C 36.816406 -58.835938 34.035156 -59.359375 31.109375 -59.359375 C 28.359375 -59.359375 25.867188 -58.664062 23.640625 -57.28125 C 21.421875 -55.90625 19.507812 -53.925781 17.90625 -51.34375 C 16.3125 -48.757812 15.078125 -45.640625 14.203125 -41.984375 C 13.335938 -38.328125 12.90625 -34.222656 12.90625 -29.671875 C 12.90625 -24.953125 13.378906 -20.78125 14.328125 -17.15625 C 15.285156 -13.53125 16.617188 -10.476562 18.328125 -8 C 20.046875 -5.53125 22.070312 -3.660156 24.40625 -2.390625 C 26.738281 -1.128906 29.253906 -0.5 31.953125 -0.5 C 34.484375 -0.5 37.125 -1.003906 39.875 -2.015625 C 42.632812 -3.035156 44.800781 -4.664062 46.375 -6.90625 C 47.613281 -8.539062 48.46875 -10.3125 48.9375 -12.21875 C 49.414062 -14.132812 49.851562 -16.804688 50.25 -20.234375 L 52.1875 -20.234375 C 52.1875 -15.117188 52.210938 -11 52.265625 -7.875 C 52.328125 -4.757812 52.414062 -2.132812 52.53125 0 L 50.59375 0 C 50.363281 -2.414062 49.976562 -3.929688 49.4375 -4.546875 C 48.90625 -5.171875 48.023438 -5.085938 46.796875 -4.296875 C 44.710938 -2.835938 42.503906 -1.554688 40.171875 -0.453125 C 37.835938 0.640625 34.847656 1.1875 31.203125 1.1875 C 25.859375 1.1875 21.175781 -0.0195312 17.15625 -2.4375 C 13.132812 -4.863281 10.015625 -8.351562 7.796875 -12.90625 C 5.578125 -17.457031 4.46875 -22.9375 4.46875 -29.34375 C 4.46875 -35.632812 5.617188 -41.140625 7.921875 -45.859375 C 10.222656 -50.585938 13.382812 -54.269531 17.40625 -56.90625 C 21.425781 -59.550781 26.050781 -60.875 31.28125 -60.875 Z M 31.28125 -60.875" transform="translate(182.565419, 193.944548)"/></g></g></g><g fill="#fff" fill-opacity="1"><g><g><path d="M 45.609375 -59.6875 C 45.390625 -57.726562 45.234375 -55.816406 45.140625 -53.953125 C 45.054688 -52.097656 45.015625 -50.695312 45.015625 -49.75 C 45.015625 -48.738281 45.039062 -47.765625 45.09375 -46.828125 C 45.15625 -45.898438 45.21875 -45.128906 45.28125 -44.515625 L 43.34375 -44.515625 C 43 -47.828125 42.515625 -50.453125 41.890625 -52.390625 C 41.273438 -54.335938 40.222656 -55.71875 38.734375 -56.53125 C 37.242188 -57.34375 35.007812 -57.75 32.03125 -57.75 L 25.046875 -57.75 C 23.128906 -57.75 21.675781 -57.59375 20.6875 -57.28125 C 19.707031 -56.976562 19.050781 -56.332031 18.71875 -55.34375 C 18.382812 -54.363281 18.21875 -52.832031 18.21875 -50.75 L 18.21875 -8.9375 C 18.21875 -6.914062 18.382812 -5.394531 18.71875 -4.375 C 19.050781 -3.363281 19.707031 -2.703125 20.6875 -2.390625 C 21.675781 -2.085938 23.128906 -1.9375 25.046875 -1.9375 L 31.203125 -1.9375 C 34.734375 -1.9375 37.410156 -2.414062 39.234375 -3.375 C 41.066406 -4.332031 42.390625 -5.890625 43.203125 -8.046875 C 44.023438 -10.210938 44.628906 -13.148438 45.015625 -16.859375 L 46.96875 -16.859375 C 46.789062 -15.347656 46.703125 -13.328125 46.703125 -10.796875 C 46.703125 -9.722656 46.742188 -8.1875 46.828125 -6.1875 C 46.921875 -4.195312 47.078125 -2.132812 47.296875 0 C 44.429688 -0.113281 41.195312 -0.179688 37.59375 -0.203125 C 34 -0.234375 30.796875 -0.25 27.984375 -0.25 C 26.753906 -0.25 25.164062 -0.25 23.21875 -0.25 C 21.28125 -0.25 19.1875 -0.234375 16.9375 -0.203125 C 14.695312 -0.179688 12.421875 -0.15625 10.109375 -0.125 C 7.804688 -0.09375 5.617188 -0.0507812 3.546875 0 L 3.546875 -1.6875 C 5.453125 -1.800781 6.894531 -2.023438 7.875 -2.359375 C 8.863281 -2.691406 9.523438 -3.363281 9.859375 -4.375 C 10.203125 -5.394531 10.375 -6.914062 10.375 -8.9375 L 10.375 -50.75 C 10.375 -52.832031 10.203125 -54.363281 9.859375 -55.34375 C 9.523438 -56.332031 8.863281 -57.007812 7.875 -57.375 C 6.894531 -57.738281 5.453125 -57.945312 3.546875 -58 L 3.546875 -59.6875 C 5.617188 -59.632812 7.804688 -59.59375 10.109375 -59.5625 C 12.421875 -59.539062 14.695312 -59.515625 16.9375 -59.484375 C 19.1875 -59.453125 21.28125 -59.4375 23.21875 -59.4375 C 25.164062 -59.4375 26.753906 -59.4375 27.984375 -59.4375 C 30.578125 -59.4375 33.515625 -59.453125 36.796875 -59.484375 C 40.085938 -59.515625 43.023438 -59.582031 45.609375 -59.6875 Z M 31.109375 -30.859375 C 31.109375 -30.859375 31.109375 -30.578125 31.109375 -30.015625 C 31.109375 -29.453125 31.109375 -29.171875 31.109375 -29.171875 L 15.6875 -29.171875 C 15.6875 -29.171875 15.6875 -29.453125 15.6875 -30.015625 C 15.6875 -30.578125 15.6875 -30.859375 15.6875 -30.859375 Z M 33.5625 -41.984375 C 33.332031 -38.785156 33.226562 -36.34375 33.25 -34.65625 C 33.28125 -32.96875 33.296875 -31.421875 33.296875 -30.015625 C 33.296875 -28.609375 33.320312 -27.0625 33.375 -25.375 C 33.4375 -23.6875 33.582031 -21.242188 33.8125 -18.046875 L 31.875 -18.046875 C 31.644531 -19.835938 31.375 -21.59375 31.0625 -23.3125 C 30.757812 -25.03125 30.085938 -26.4375 29.046875 -27.53125 C 28.003906 -28.625 26.25 -29.171875 23.78125 -29.171875 L 23.78125 -30.859375 C 25.632812 -30.859375 27.050781 -31.238281 28.03125 -32 C 29.019531 -32.757812 29.738281 -33.726562 30.1875 -34.90625 C 30.632812 -36.082031 30.941406 -37.300781 31.109375 -38.5625 C 31.273438 -39.832031 31.441406 -40.972656 31.609375 -41.984375 Z M 33.5625 -41.984375" transform="translate(238.88433, 193.944548)"/></g></g></g><g fill="#fff" fill-opacity="1"><g><g><path d="M 49.578125 -59.6875 L 49.578125 -58 C 48.503906 -57.78125 47.429688 -57.09375 46.359375 -55.9375 C 45.296875 -54.789062 44.117188 -52.976562 42.828125 -50.5 L 25.796875 -16.78125 L 24.359375 -16.78125 L 4.640625 -53.203125 C 3.515625 -55.285156 2.570312 -56.59375 1.8125 -57.125 C 1.050781 -57.65625 0.363281 -57.921875 -0.25 -57.921875 L -0.25 -59.6875 C 0.875 -59.632812 2.039062 -59.578125 3.25 -59.515625 C 4.457031 -59.460938 5.765625 -59.4375 7.171875 -59.4375 C 9.023438 -59.4375 11.003906 -59.453125 13.109375 -59.484375 C 15.210938 -59.515625 17.164062 -59.582031 18.96875 -59.6875 L 18.96875 -57.921875 C 17.5625 -57.921875 16.320312 -57.75 15.25 -57.40625 C 14.1875 -57.070312 13.484375 -56.457031 13.140625 -55.5625 C 12.804688 -54.664062 13.0625 -53.398438 13.90625 -51.765625 L 28.15625 -24.453125 L 27.484375 -23.9375 L 38.703125 -46.28125 C 40.273438 -49.375 41.046875 -51.765625 41.015625 -53.453125 C 40.984375 -55.140625 40.320312 -56.304688 39.03125 -56.953125 C 37.738281 -57.597656 35.914062 -57.945312 33.5625 -58 L 33.5625 -59.6875 C 35.1875 -59.632812 36.84375 -59.578125 38.53125 -59.515625 C 40.21875 -59.460938 41.789062 -59.4375 43.25 -59.4375 C 44.707031 -59.4375 45.914062 -59.460938 46.875 -59.515625 C 47.832031 -59.578125 48.734375 -59.632812 49.578125 -59.6875 Z M 29.59375 -25.625 L 29.59375 -8.9375 C 29.59375 -6.914062 29.757812 -5.394531 30.09375 -4.375 C 30.4375 -3.363281 31.097656 -2.691406 32.078125 -2.359375 C 33.066406 -2.023438 34.515625 -1.800781 36.421875 -1.6875 L 36.421875 0 C 35.128906 -0.113281 33.515625 -0.179688 31.578125 -0.203125 C 29.640625 -0.234375 27.6875 -0.25 25.71875 -0.25 C 23.519531 -0.25 21.460938 -0.234375 19.546875 -0.203125 C 17.640625 -0.179688 16.097656 -0.113281 14.921875 0 L 14.921875 -1.6875 C 16.835938 -1.800781 18.285156 -2.023438 19.265625 -2.359375 C 20.242188 -2.691406 20.898438 -3.363281 21.234375 -4.375 C 21.578125 -5.394531 21.75 -6.914062 21.75 -8.9375 L 21.75 -26.21875 L 26.3125 -21 Z M 29.59375 -25.625" transform="translate(288.542765, 193.944548)"/></g></g></g><path fill="none" stroke="#f6f5f2" stroke-linecap="butt" stroke-linejoin="miter" stroke-miterlimit="4" stroke-opacity="1" stroke-width="4.283" d="M 70.516439 73.525998 C 61.818522 69.42704 36.052895 71.348915 19.15706 76.036415 C 2.089351 80.802041 2.344559 86.322874 8.365393 96.197875 C 12.214352 102.468709 14.974768 108.244751 15.808102 115.18746 C 13.047685 115.43746 5.688309 116.104126 2.761226 117.359335 C 0.334142 118.447876 0.000809108 120.541627 1.506018 120.541627 C 2.172684 120.541627 2.927893 120.036418 3.177893 119.369751 C 3.177893 119.286418 3.177893 119.286418 3.261226 119.286418 C 5.604976 117.864543 13.302893 117.276001 16.06331 117.026001 C 16.229977 120.036418 16.146644 123.213502 15.641435 126.729127 C 14.558102 129.822877 7.948726 150.234337 8.115393 152.994754 C 8.115393 154.666629 9.953935 154.083295 10.542476 152.91142 C 10.709143 152.66142 16.396644 135.427044 17.735185 126.56246 C 18.068519 125.473919 19.323727 121.708293 21.078935 116.776001 C 31.370603 116.18746 41.073728 116.526001 41.407062 116.526001 C 43.078937 116.442668 43.917479 113.932251 42.245604 114.015584 C 34.88102 114.182251 29.110186 114.348918 21.750811 114.765584 C 26.183102 102.052042 33.125811 83.734332 36.386228 82.395791 C 36.47477 82.395791 37.641437 82.312457 38.063312 81.223916 C 38.563312 79.802041 36.558103 79.463499 34.464353 81.723916 C 30.198728 86.156208 23.006019 105.567667 19.65706 114.848918 C 19.15706 114.932251 18.568519 114.932251 18.068519 115.015584 C 17.146644 107.239542 13.886227 100.880167 10.203935 94.859333 C 5.104976 86.494749 3.849768 81.557249 18.990394 77.95829 C 34.88102 74.197873 60.896646 72.187457 68.76123 75.786415 C 69.433105 76.119749 70.60498 76.786415 70.349772 77.70829 C 69.766439 79.213499 72.110189 79.213499 72.693522 77.70829 C 73.532064 75.619749 72.110189 74.36454 70.516439 73.525998 Z M 18.990394 116.859335 C 18.65706 117.609335 18.485185 118.28121 18.318519 118.78121 C 18.318519 118.114543 18.235185 117.526001 18.235185 116.942668 C 18.485185 116.942668 18.740394 116.859335 18.990394 116.859335 Z M 108.157066 116.859335 C 104.563316 120.708293 99.209149 126.56246 93.01644 130.411419 C 87.07894 134.171836 81.558106 134.427044 82.896648 127.651002 C 83.563315 124.640585 84.901856 121.708293 85.573731 119.03121 C 86.495606 115.354126 84.23519 114.932251 81.391439 118.53121 C 79.636231 120.958293 78.125814 123.635377 76.120606 126.729127 C 72.521647 131.999961 68.589355 135.598919 69.01123 130.661419 C 69.427897 125.557252 74.948731 114.182251 77.959148 118.197876 C 78.797689 119.286418 81.224773 117.359335 80.386231 116.270793 C 75.537272 109.833292 67.339355 124.385377 66.334147 131.244752 C 65.662272 137.270794 71.60498 137.854128 77.959148 127.229127 C 79.547689 124.552043 81.558106 120.791627 82.729981 119.03121 C 84.151856 116.776001 84.568523 117.609335 83.98519 119.203085 C 83.146648 121.291627 81.474773 124.723918 80.636231 127.984335 C 78.297689 136.765586 85.740398 137.520794 93.854982 132.166627 C 99.375816 128.567669 104.979983 122.546835 109.078941 117.442668 C 109.667483 116.692668 108.828941 116.18746 108.157066 116.859335 Z M 147.80811 116.776001 C 142.703943 121.208293 137.938318 125.723919 133.58936 127.901002 C 124.552901 132.499961 124.802901 125.307252 124.969567 121.291627 C 125.391442 112.088501 118.3654 113.260376 113.1779 119.953085 C 109.245608 124.973918 106.151858 132.083294 104.391441 133.588502 C 103.308108 131.328086 107.9904 120.708293 110.08415 116.859335 C 110.917483 115.270793 108.573733 114.765584 107.7404 116.442668 C 104.813316 121.708293 101.969566 129.90621 102.302899 133.755169 C 102.552899 135.932253 104.308108 136.432253 106.568524 133.505169 C 108.662275 130.744752 111.506025 124.973918 114.766442 120.958293 C 118.6154 116.18746 122.381025 115.104126 122.125817 122.213502 C 122.042484 126.395794 122.547692 135.848919 134.006026 129.572877 C 139.110193 126.81246 144.21436 121.62496 148.563319 117.526001 C 149.313319 116.859335 148.563319 116.104126 147.80811 116.776001 Z M 187.459155 116.776001 C 182.354988 121.208293 177.589362 125.723919 173.235195 127.901002 C 164.203945 132.499961 164.453945 125.307252 164.620612 121.291627 C 165.037278 112.088501 158.011236 113.260376 152.828944 119.953085 C 148.896652 124.973918 145.797694 132.083294 144.042485 133.588502 C 142.953943 131.328086 147.641444 120.708293 149.729986 116.859335 C 150.568527 115.270793 148.224777 114.765584 147.391444 116.442668 C 144.459152 121.708293 141.615402 129.90621 141.953943 133.755169 C 142.203943 135.932253 143.959152 136.432253 146.219569 133.505169 C 148.308111 130.744752 151.151861 124.973918 154.417486 120.958293 C 158.261236 116.18746 162.026861 115.104126 161.776861 122.213502 C 161.693528 126.395794 162.193528 135.848919 173.657071 129.572877 C 178.756029 126.81246 183.860196 121.62496 188.209155 117.526001 C 188.964363 116.859335 188.209155 116.104126 187.459155 116.776001 Z M 213.641448 116.859335 C 208.703948 121.708293 202.683114 127.567669 196.740405 130.744752 C 187.792488 135.598919 180.766446 132.499961 185.448738 122.463502 C 188.797697 122.380168 192.641447 121.62496 195.740405 119.286418 C 201.006031 115.354126 200.006031 109.916626 194.901864 111.338501 C 190.636238 112.510376 185.365405 117.026001 182.771654 123.635377 C 178.339362 134.927044 186.703946 138.692669 197.328947 132.583294 C 203.766447 128.989544 209.54249 122.880168 214.474782 117.442668 C 215.146657 116.776001 214.308115 116.18746 213.641448 116.859335 Z M 194.735197 113.427043 C 197.578947 112.760376 197.41228 115.604126 194.651864 117.609335 C 192.391447 119.369751 189.297697 119.869751 186.870613 119.953085 C 189.297697 116.270793 192.641447 114.015584 194.735197 113.427043 Z M 243.584158 116.859335 C 239.740408 120.708293 235.302908 125.057252 230.953949 128.317669 C 223.089365 134.088502 215.313323 135.343711 216.735198 127.484335 C 217.235198 124.973918 218.57374 121.708293 220.91749 118.114543 C 222.256032 116.354126 221.834157 115.604126 220.078949 115.854126 C 219.245615 116.020793 218.07374 116.270793 216.901865 116.354126 C 214.308115 116.526001 214.558115 115.604126 216.313323 113.593709 C 217.82374 112.005168 215.646657 111.171834 214.391448 112.593709 C 211.047698 116.609335 211.464365 119.114543 216.146657 118.78121 C 216.985198 118.697876 217.568532 118.614543 218.240407 118.53121 C 216.485198 121.458293 215.063323 124.723918 214.391448 127.817669 C 212.469573 138.020794 222.006032 137.520794 231.959158 129.739544 C 236.808116 125.890585 240.740408 121.541627 244.4227 117.442668 C 245.094575 116.776001 244.256033 116.18746 243.584158 116.859335 Z M 243.584158 116.859335" transform="matrix(0.75, 0, 0, 0.75, 60.620487, 125.02738)"/><g fill="#fff" fill-opacity="1"><g><g><path d="M 52.890625 -60.355469 C 46.363281 -63.429688 27.039062 -61.988281 14.367188 -58.472656 C 1.570312 -54.898438 1.757812 -50.757812 6.273438 -43.351562 C 9.160156 -38.648438 11.230469 -34.320312 11.859375 -29.109375 C 9.789062 -28.921875 4.265625 -28.421875 2.070312 -27.480469 C 0.25 -26.664062 0 -25.09375 1.128906 -25.09375 C 1.632812 -25.09375 2.195312 -25.472656 2.382812 -25.972656 C 2.382812 -26.035156 2.382812 -26.035156 2.445312 -26.035156 C 4.203125 -27.101562 9.976562 -27.542969 12.046875 -27.730469 C 12.171875 -25.472656 12.109375 -23.089844 11.730469 -20.453125 C 10.917969 -18.132812 5.960938 -2.824219 6.085938 -0.753906 C 6.085938 0.5 7.464844 0.0625 7.90625 -0.816406 C 8.03125 -1.003906 12.296875 -13.929688 13.300781 -20.578125 C 13.550781 -21.394531 14.492188 -24.21875 15.808594 -27.917969 C 23.527344 -28.359375 30.804688 -28.105469 31.054688 -28.105469 C 32.3125 -28.171875 32.9375 -30.050781 31.683594 -29.988281 C 26.164062 -29.863281 21.832031 -29.738281 16.3125 -29.425781 C 19.636719 -38.960938 24.84375 -52.699219 27.292969 -53.703125 C 27.355469 -53.703125 28.234375 -53.765625 28.546875 -54.582031 C 28.921875 -55.648438 27.417969 -55.902344 25.847656 -54.207031 C 22.648438 -50.882812 17.253906 -36.324219 14.742188 -29.363281 C 14.367188 -29.300781 13.929688 -29.300781 13.550781 -29.238281 C 12.863281 -35.070312 10.414062 -39.839844 7.652344 -44.355469 C 3.828125 -50.628906 2.886719 -54.332031 14.242188 -57.03125 C 26.164062 -59.851562 45.675781 -61.359375 51.570312 -58.660156 C 52.074219 -58.410156 52.953125 -57.910156 52.765625 -57.21875 C 52.324219 -56.089844 54.082031 -56.089844 54.519531 -57.21875 C 55.148438 -58.785156 54.082031 -59.726562 52.890625 -60.355469 Z M 14.242188 -27.855469 C 13.992188 -27.292969 13.867188 -26.789062 13.738281 -26.414062 C 13.738281 -26.914062 13.675781 -27.355469 13.675781 -27.792969 C 13.867188 -27.792969 14.054688 -27.855469 14.242188 -27.855469 Z M 14.242188 -27.855469" transform="translate(60.620487, 240.527372)"/></g></g></g><g fill="#fff" fill-opacity="1"><g><g><path d="M 25.972656 -27.855469 C 23.277344 -24.96875 19.261719 -20.578125 14.617188 -17.691406 C 10.164062 -14.871094 6.023438 -14.679688 7.027344 -19.761719 C 7.527344 -22.019531 8.53125 -24.21875 9.035156 -26.226562 C 9.722656 -28.984375 8.03125 -29.300781 5.898438 -26.601562 C 4.578125 -24.78125 3.449219 -22.773438 1.945312 -20.453125 C -0.753906 -16.5 -3.703125 -13.800781 -3.386719 -17.503906 C -3.074219 -21.332031 1.066406 -29.863281 3.324219 -26.851562 C 3.953125 -26.035156 5.773438 -27.480469 5.144531 -28.296875 C 1.503906 -33.125 -4.644531 -22.210938 -5.394531 -17.066406 C -5.898438 -12.546875 -1.441406 -12.109375 3.324219 -20.078125 C 4.515625 -22.085938 6.023438 -24.90625 6.902344 -26.226562 C 7.96875 -27.917969 8.28125 -27.292969 7.84375 -26.097656 C 7.214844 -24.53125 5.960938 -21.957031 5.332031 -19.511719 C 3.574219 -12.925781 9.160156 -12.359375 15.246094 -16.375 C 19.386719 -19.074219 23.589844 -23.589844 26.664062 -27.417969 C 27.101562 -27.980469 26.476562 -28.359375 25.972656 -27.855469 Z M 25.972656 -27.855469" transform="translate(115.765877, 240.527372)"/></g></g></g><g fill="#fff" fill-opacity="1"><g><g><path d="M 30.050781 -27.917969 C 26.226562 -24.59375 22.648438 -21.207031 19.386719 -19.574219 C 12.609375 -16.125 12.796875 -21.519531 12.925781 -24.53125 C 13.238281 -31.433594 7.96875 -30.554688 4.078125 -25.535156 C 1.128906 -21.769531 -1.191406 -16.4375 -2.507812 -15.308594 C -3.324219 -17.003906 0.1875 -24.96875 1.757812 -27.855469 C 2.382812 -29.046875 0.628906 -29.425781 0 -28.171875 C -2.195312 -24.21875 -4.328125 -18.070312 -4.078125 -15.183594 C -3.890625 -13.550781 -2.574219 -13.175781 -0.878906 -15.371094 C 0.691406 -17.441406 2.824219 -21.769531 5.269531 -24.78125 C 8.15625 -28.359375 10.980469 -29.171875 10.792969 -23.839844 C 10.726562 -20.703125 11.105469 -13.613281 19.699219 -18.320312 C 23.527344 -20.390625 27.355469 -24.28125 30.617188 -27.355469 C 31.179688 -27.855469 30.617188 -28.421875 30.050781 -27.917969 Z M 30.050781 -27.917969" transform="translate(141.425108, 240.527372)"/></g></g></g><g fill="#fff" fill-opacity="1"><g><g><path d="M 30.050781 -27.917969 C 26.226562 -24.59375 22.648438 -21.207031 19.386719 -19.574219 C 12.609375 -16.125 12.796875 -21.519531 12.925781 -24.53125 C 13.238281 -31.433594 7.96875 -30.554688 4.078125 -25.535156 C 1.128906 -21.769531 -1.191406 -16.4375 -2.507812 -15.308594 C -3.324219 -17.003906 0.1875 -24.96875 1.757812 -27.855469 C 2.382812 -29.046875 0.628906 -29.425781 0 -28.171875 C -2.195312 -24.21875 -4.328125 -18.070312 -4.078125 -15.183594 C -3.890625 -13.550781 -2.574219 -13.175781 -0.878906 -15.371094 C 0.691406 -17.441406 2.824219 -21.769531 5.269531 -24.78125 C 8.15625 -28.359375 10.980469 -29.171875 10.792969 -23.839844 C 10.726562 -20.703125 11.105469 -13.613281 19.699219 -18.320312 C 23.527344 -20.390625 27.355469 -24.28125 30.617188 -27.355469 C 31.179688 -27.855469 30.617188 -28.421875 30.050781 -27.917969 Z M 30.050781 -27.917969" transform="translate(171.162212, 240.527372)"/></g></g></g><g fill="#fff" fill-opacity="1"><g><g><path d="M 19.949219 -27.855469 C 16.25 -24.21875 11.730469 -19.824219 7.277344 -17.441406 C 0.566406 -13.800781 -4.707031 -16.125 -1.191406 -23.652344 C 1.316406 -23.714844 4.203125 -24.28125 6.523438 -26.035156 C 10.476562 -28.984375 9.722656 -33.0625 5.898438 -31.996094 C 2.699219 -31.117188 -1.253906 -27.730469 -3.199219 -22.773438 C -6.523438 -14.304688 -0.25 -11.480469 7.71875 -16.0625 C 12.546875 -18.757812 16.875 -23.339844 20.578125 -27.417969 C 21.082031 -27.917969 20.453125 -28.359375 19.949219 -27.855469 Z M 5.773438 -30.429688 C 7.90625 -30.929688 7.78125 -28.796875 5.710938 -27.292969 C 4.015625 -25.972656 1.695312 -25.597656 -0.125 -25.535156 C 1.695312 -28.296875 4.203125 -29.988281 5.773438 -30.429688 Z M 5.773438 -30.429688" transform="translate(200.899317, 240.527372)"/></g></g></g><g fill="#fff" fill-opacity="1"><g><g><path d="M 22.773438 -27.855469 C 19.886719 -24.96875 16.5625 -21.707031 13.300781 -19.261719 C 7.402344 -14.933594 1.570312 -13.992188 2.636719 -19.886719 C 3.011719 -21.769531 4.015625 -24.21875 5.773438 -26.914062 C 6.777344 -28.234375 6.460938 -28.796875 5.144531 -28.609375 C 4.515625 -28.484375 3.640625 -28.296875 2.761719 -28.234375 C 0.816406 -28.105469 1.003906 -28.796875 2.320312 -30.304688 C 3.449219 -31.496094 1.820312 -32.121094 0.878906 -31.054688 C -1.632812 -28.042969 -1.316406 -26.164062 2.195312 -26.414062 C 2.824219 -26.476562 3.261719 -26.539062 3.765625 -26.601562 C 2.445312 -24.40625 1.378906 -21.957031 0.878906 -19.636719 C -0.566406 -11.984375 6.585938 -12.359375 14.054688 -18.195312 C 17.691406 -21.082031 20.640625 -24.34375 23.402344 -27.417969 C 23.902344 -27.917969 23.277344 -28.359375 22.773438 -27.855469 Z M 22.773438 -27.855469" transform="translate(220.535843, 240.527372)"/></g></g></g><path fill="none" stroke="#fff" stroke-linecap="butt" stroke-linejoin="miter" stroke-miterlimit="4" stroke-opacity="1" stroke-width="1" d="M 0.00198116 0.498983 L 115.345739 0.498983" transform="matrix(0.75, 0, 0, 0.75, 235.631327, 219.106231)"/></svg>