<?xml version="1.0" encoding="UTF-8"?>
<svg xmlns="http://www.w3.org/2000/svg" xmlns:xlink="http://www.w3.org/1999/xlink" width="50px" height="50px" viewBox="0 0 50 50" version="1.1">
<g id="surface1">
<rect x="0" y="0" width="50" height="50" style="fill:rgb(94.509804%,93.72549%,90.588235%);fill-opacity:1;stroke:none;"/>
<path style=" stroke:none;fill-rule:nonzero;fill:rgb(14.117647%,12.54902%,21.960784%);fill-opacity:1;" d="M 17.28125 22.894531 C 17.484375 22.894531 17.679688 22.917969 17.875 22.964844 C 18.070312 23.007812 18.21875 23.054688 18.3125 23.097656 L 18.457031 23.167969 L 18.0625 23.960938 C 17.785156 23.8125 17.527344 23.742188 17.28125 23.742188 C 17.144531 23.742188 17.046875 23.757812 16.992188 23.785156 C 16.933594 23.816406 16.90625 23.871094 16.90625 23.953125 C 16.90625 23.972656 16.910156 23.988281 16.914062 24.007812 C 16.917969 24.027344 16.925781 24.042969 16.941406 24.058594 C 16.953125 24.074219 16.964844 24.089844 16.976562 24.097656 C 16.988281 24.109375 17.007812 24.125 17.035156 24.136719 C 17.0625 24.152344 17.085938 24.160156 17.101562 24.167969 C 17.117188 24.175781 17.144531 24.1875 17.179688 24.199219 C 17.214844 24.210938 17.242188 24.222656 17.261719 24.226562 C 17.28125 24.234375 17.3125 24.246094 17.355469 24.257812 C 17.398438 24.273438 17.429688 24.28125 17.453125 24.285156 C 17.59375 24.328125 17.71875 24.375 17.820312 24.425781 C 17.925781 24.472656 18.035156 24.542969 18.152344 24.628906 C 18.269531 24.714844 18.359375 24.824219 18.421875 24.957031 C 18.488281 25.085938 18.519531 25.238281 18.519531 25.40625 C 18.519531 26.203125 17.964844 26.601562 16.859375 26.601562 C 16.609375 26.601562 16.371094 26.5625 16.144531 26.488281 C 15.921875 26.410156 15.757812 26.332031 15.65625 26.253906 L 15.507812 26.128906 L 16 25.304688 C 16.035156 25.335938 16.082031 25.375 16.140625 25.417969 C 16.203125 25.460938 16.308594 25.519531 16.460938 25.59375 C 16.617188 25.671875 16.753906 25.707031 16.863281 25.707031 C 17.117188 25.707031 17.242188 25.625 17.242188 25.457031 C 17.242188 25.378906 17.210938 25.316406 17.144531 25.273438 C 17.082031 25.230469 16.972656 25.183594 16.820312 25.128906 C 16.667969 25.074219 16.546875 25.023438 16.460938 24.976562 C 16.246094 24.863281 16.070312 24.734375 15.945312 24.589844 C 15.816406 24.449219 15.753906 24.257812 15.753906 24.019531 C 15.753906 23.664062 15.890625 23.390625 16.164062 23.191406 C 16.441406 22.996094 16.8125 22.894531 17.28125 22.894531 Z M 17.28125 22.894531 "/>
<path style=" stroke:none;fill-rule:nonzero;fill:rgb(14.117647%,12.54902%,21.960784%);fill-opacity:1;" d="M 18.683594 22.996094 L 18.683594 21.691406 L 19.890625 21.691406 L 19.890625 22.996094 L 20.628906 22.996094 L 20.628906 23.917969 L 19.890625 23.917969 L 19.890625 25.03125 C 19.890625 25.355469 19.980469 25.515625 20.164062 25.515625 C 20.207031 25.515625 20.257812 25.507812 20.308594 25.488281 C 20.355469 25.472656 20.394531 25.453125 20.421875 25.433594 L 20.464844 25.40625 L 20.761719 26.382812 C 20.503906 26.527344 20.207031 26.601562 19.875 26.601562 C 19.648438 26.601562 19.453125 26.5625 19.289062 26.484375 C 19.125 26.402344 19 26.296875 18.917969 26.160156 C 18.832031 26.027344 18.773438 25.886719 18.734375 25.738281 C 18.699219 25.589844 18.683594 25.433594 18.683594 25.265625 L 18.683594 23.917969 L 18.175781 23.917969 L 18.175781 22.996094 Z M 18.683594 22.996094 "/>
<path style=" stroke:none;fill-rule:nonzero;fill:rgb(14.117647%,12.54902%,21.960784%);fill-opacity:1;" d="M 20.769531 26.066406 C 20.441406 25.710938 20.277344 25.273438 20.277344 24.753906 C 20.277344 24.234375 20.441406 23.792969 20.769531 23.433594 C 21.097656 23.074219 21.515625 22.894531 22.019531 22.894531 C 22.484375 22.894531 22.867188 23.039062 23.167969 23.332031 L 23.167969 22.996094 L 24.375 22.996094 L 24.375 26.5 L 23.179688 26.5 L 23.179688 26.101562 L 23.167969 26.101562 C 22.867188 26.4375 22.484375 26.601562 22.019531 26.601562 C 21.515625 26.601562 21.097656 26.421875 20.769531 26.066406 Z M 21.796875 24.15625 C 21.640625 24.3125 21.5625 24.507812 21.5625 24.75 C 21.5625 24.992188 21.636719 25.191406 21.785156 25.34375 C 21.9375 25.496094 22.136719 25.570312 22.382812 25.570312 C 22.617188 25.570312 22.8125 25.492188 22.964844 25.339844 C 23.117188 25.183594 23.195312 24.988281 23.195312 24.75 C 23.195312 24.507812 23.117188 24.3125 22.960938 24.15625 C 22.800781 24.003906 22.609375 23.925781 22.382812 23.925781 C 22.148438 23.925781 21.953125 24.003906 21.796875 24.15625 Z M 21.796875 24.15625 "/>
<path style=" stroke:none;fill-rule:nonzero;fill:rgb(14.117647%,12.54902%,21.960784%);fill-opacity:1;" d="M 26.414062 23.882812 C 26.1875 23.882812 25.992188 23.96875 25.828125 24.136719 C 25.664062 24.304688 25.582031 24.507812 25.582031 24.746094 C 25.582031 24.984375 25.664062 25.191406 25.828125 25.359375 C 25.992188 25.527344 26.1875 25.613281 26.414062 25.613281 C 26.523438 25.613281 26.628906 25.597656 26.726562 25.570312 C 26.824219 25.542969 26.898438 25.515625 26.941406 25.488281 L 27.003906 25.445312 L 27.414062 26.285156 C 27.382812 26.3125 27.335938 26.339844 27.28125 26.375 C 27.222656 26.40625 27.09375 26.453125 26.890625 26.511719 C 26.6875 26.570312 26.46875 26.601562 26.238281 26.601562 C 25.722656 26.601562 25.273438 26.421875 24.882812 26.058594 C 24.492188 25.695312 24.296875 25.261719 24.296875 24.757812 C 24.296875 24.25 24.492188 23.8125 24.882812 23.445312 C 25.273438 23.078125 25.722656 22.894531 26.238281 22.894531 C 26.46875 22.894531 26.683594 22.921875 26.878906 22.976562 C 27.074219 23.03125 27.214844 23.085938 27.296875 23.140625 L 27.414062 23.222656 L 27.003906 24.050781 C 26.851562 23.941406 26.65625 23.882812 26.414062 23.882812 Z M 26.414062 23.882812 "/>
<path style=" stroke:none;fill-rule:nonzero;fill:rgb(14.117647%,12.54902%,21.960784%);fill-opacity:1;" d="M 30.804688 24.914062 L 28.265625 24.914062 C 28.265625 25.160156 28.34375 25.34375 28.503906 25.460938 C 28.664062 25.578125 28.835938 25.640625 29.023438 25.640625 C 29.21875 25.640625 29.375 25.613281 29.488281 25.5625 C 29.601562 25.507812 29.730469 25.40625 29.878906 25.25 L 30.75 25.6875 C 30.386719 26.296875 29.78125 26.601562 28.933594 26.601562 C 28.40625 26.601562 27.953125 26.421875 27.574219 26.058594 C 27.195312 25.695312 27.007812 25.261719 27.007812 24.75 C 27.007812 24.242188 27.195312 23.804688 27.574219 23.441406 C 27.953125 23.078125 28.40625 22.894531 28.933594 22.894531 C 29.488281 22.894531 29.941406 23.054688 30.289062 23.375 C 30.636719 23.695312 30.8125 24.15625 30.8125 24.75 C 30.8125 24.832031 30.808594 24.886719 30.804688 24.914062 Z M 28.300781 24.246094 L 29.632812 24.246094 C 29.601562 24.066406 29.53125 23.925781 29.414062 23.828125 C 29.300781 23.730469 29.152344 23.679688 28.96875 23.679688 C 28.769531 23.679688 28.609375 23.734375 28.488281 23.835938 C 28.371094 23.941406 28.308594 24.078125 28.300781 24.246094 Z M 28.300781 24.246094 "/>
<path style=" stroke:none;fill-rule:nonzero;fill:rgb(14.117647%,12.54902%,21.960784%);fill-opacity:1;" d="M 33.390625 22.996094 L 34.785156 22.996094 L 32.03125 28.273438 L 30.640625 28.273438 L 31.851562 25.953125 L 30.1875 22.996094 L 31.582031 22.996094 L 32.558594 24.792969 Z M 33.390625 22.996094 "/>
<path style=" stroke:none;fill-rule:nonzero;fill:rgb(14.117647%,12.54902%,21.960784%);fill-opacity:1;" d="M 20.992188 27.449219 C 20.960938 27.449219 20.9375 27.460938 20.921875 27.476562 C 20.90625 27.496094 20.902344 27.519531 20.902344 27.546875 L 20.902344 27.640625 L 21.039062 27.640625 C 21.054688 27.640625 21.070312 27.648438 21.082031 27.660156 C 21.09375 27.671875 21.101562 27.683594 21.101562 27.703125 C 21.101562 27.71875 21.09375 27.734375 21.082031 27.746094 C 21.070312 27.757812 21.054688 27.761719 21.039062 27.761719 L 20.902344 27.761719 L 20.902344 28.28125 C 20.902344 28.300781 20.894531 28.316406 20.882812 28.332031 C 20.871094 28.34375 20.855469 28.347656 20.835938 28.347656 C 20.820312 28.347656 20.804688 28.34375 20.789062 28.332031 C 20.777344 28.316406 20.773438 28.300781 20.773438 28.28125 L 20.773438 27.761719 L 20.6875 27.761719 C 20.667969 27.761719 20.652344 27.757812 20.640625 27.746094 C 20.628906 27.734375 20.625 27.71875 20.625 27.703125 C 20.625 27.683594 20.628906 27.671875 20.640625 27.660156 C 20.652344 27.648438 20.667969 27.640625 20.6875 27.640625 L 20.773438 27.640625 L 20.773438 27.546875 C 20.773438 27.480469 20.792969 27.429688 20.832031 27.394531 C 20.875 27.355469 20.933594 27.335938 21.007812 27.335938 C 21.039062 27.335938 21.066406 27.339844 21.089844 27.351562 C 21.113281 27.363281 21.125 27.378906 21.125 27.402344 C 21.125 27.421875 21.121094 27.433594 21.109375 27.445312 C 21.101562 27.457031 21.085938 27.464844 21.070312 27.464844 C 21.070312 27.464844 21.058594 27.460938 21.042969 27.457031 C 21.023438 27.453125 21.003906 27.449219 20.992188 27.449219 Z M 20.992188 27.449219 "/>
<path style=" stroke:none;fill-rule:nonzero;fill:rgb(14.117647%,12.54902%,21.960784%);fill-opacity:1;" d="M 22.699219 27.621094 C 22.71875 27.621094 22.734375 27.625 22.746094 27.640625 C 22.757812 27.648438 22.765625 27.664062 22.765625 27.6875 L 22.765625 28.28125 C 22.765625 28.300781 22.757812 28.316406 22.746094 28.332031 C 22.734375 28.34375 22.71875 28.347656 22.699219 28.347656 C 22.679688 28.347656 22.664062 28.34375 22.652344 28.332031 C 22.640625 28.316406 22.632812 28.300781 22.632812 28.28125 L 22.632812 28.246094 C 22.609375 28.28125 22.578125 28.308594 22.535156 28.332031 C 22.496094 28.351562 22.449219 28.363281 22.402344 28.363281 C 22.339844 28.363281 22.285156 28.347656 22.234375 28.316406 C 22.179688 28.28125 22.140625 28.238281 22.113281 28.179688 C 22.085938 28.125 22.070312 28.058594 22.070312 27.988281 C 22.070312 27.914062 22.085938 27.851562 22.113281 27.796875 C 22.140625 27.738281 22.179688 27.691406 22.230469 27.660156 C 22.28125 27.628906 22.335938 27.613281 22.398438 27.613281 C 22.445312 27.613281 22.492188 27.621094 22.53125 27.644531 C 22.574219 27.664062 22.609375 27.6875 22.632812 27.71875 L 22.632812 27.6875 C 22.632812 27.667969 22.640625 27.652344 22.652344 27.640625 C 22.664062 27.625 22.679688 27.621094 22.699219 27.621094 Z M 22.417969 28.242188 C 22.460938 28.242188 22.5 28.230469 22.53125 28.210938 C 22.566406 28.1875 22.59375 28.15625 22.609375 28.117188 C 22.628906 28.078125 22.640625 28.035156 22.640625 27.988281 C 22.640625 27.941406 22.628906 27.898438 22.609375 27.859375 C 22.59375 27.820312 22.566406 27.789062 22.53125 27.769531 C 22.5 27.746094 22.460938 27.734375 22.417969 27.734375 C 22.375 27.734375 22.335938 27.742188 22.304688 27.765625 C 22.269531 27.789062 22.242188 27.820312 22.226562 27.859375 C 22.203125 27.894531 22.195312 27.9375 22.195312 27.988281 C 22.195312 28.035156 22.203125 28.078125 22.226562 28.117188 C 22.242188 28.15625 22.269531 28.1875 22.304688 28.210938 C 22.335938 28.230469 22.375 28.242188 22.417969 28.242188 Z M 22.417969 28.242188 "/>
<path style=" stroke:none;fill-rule:nonzero;fill:rgb(14.117647%,12.54902%,21.960784%);fill-opacity:1;" d="M 24.21875 27.613281 C 24.386719 27.613281 24.46875 27.710938 24.46875 27.910156 L 24.46875 28.28125 C 24.46875 28.300781 24.460938 28.316406 24.449219 28.332031 C 24.4375 28.34375 24.421875 28.347656 24.402344 28.347656 C 24.382812 28.347656 24.367188 28.34375 24.355469 28.332031 C 24.34375 28.316406 24.335938 28.300781 24.335938 28.28125 L 24.335938 27.910156 C 24.335938 27.855469 24.324219 27.816406 24.300781 27.78125 C 24.277344 27.75 24.234375 27.734375 24.179688 27.734375 C 24.140625 27.734375 24.109375 27.742188 24.078125 27.757812 C 24.050781 27.773438 24.027344 27.792969 24.011719 27.820312 C 23.992188 27.847656 23.984375 27.878906 23.984375 27.910156 L 23.984375 28.28125 C 23.984375 28.300781 23.980469 28.316406 23.964844 28.332031 C 23.953125 28.34375 23.9375 28.347656 23.917969 28.347656 C 23.898438 28.347656 23.882812 28.34375 23.871094 28.332031 C 23.859375 28.316406 23.855469 28.300781 23.855469 28.28125 L 23.855469 27.695312 C 23.855469 27.675781 23.859375 27.660156 23.871094 27.648438 C 23.886719 27.636719 23.898438 27.628906 23.917969 27.628906 C 23.9375 27.628906 23.953125 27.636719 23.964844 27.648438 C 23.980469 27.660156 23.984375 27.675781 23.984375 27.695312 L 23.984375 27.742188 C 24.007812 27.707031 24.042969 27.675781 24.082031 27.652344 C 24.125 27.625 24.171875 27.613281 24.21875 27.613281 Z M 24.21875 27.613281 "/>
<path style=" stroke:none;fill-rule:nonzero;fill:rgb(14.117647%,12.54902%,21.960784%);fill-opacity:1;" d="M 25.925781 27.613281 C 26.089844 27.613281 26.171875 27.710938 26.171875 27.910156 L 26.171875 28.28125 C 26.171875 28.300781 26.167969 28.316406 26.15625 28.332031 C 26.140625 28.34375 26.125 28.347656 26.105469 28.347656 C 26.089844 28.347656 26.074219 28.34375 26.0625 28.332031 C 26.046875 28.316406 26.042969 28.300781 26.042969 28.28125 L 26.042969 27.910156 C 26.042969 27.855469 26.03125 27.816406 26.003906 27.78125 C 25.980469 27.75 25.941406 27.734375 25.882812 27.734375 C 25.847656 27.734375 25.8125 27.742188 25.785156 27.757812 C 25.753906 27.773438 25.730469 27.792969 25.714844 27.820312 C 25.699219 27.847656 25.691406 27.878906 25.691406 27.910156 L 25.691406 28.28125 C 25.691406 28.300781 25.683594 28.316406 25.671875 28.332031 C 25.660156 28.34375 25.640625 28.347656 25.625 28.347656 C 25.601562 28.347656 25.585938 28.34375 25.574219 28.332031 C 25.5625 28.316406 25.558594 28.300781 25.558594 28.28125 L 25.558594 27.695312 C 25.558594 27.675781 25.566406 27.660156 25.578125 27.648438 C 25.589844 27.636719 25.605469 27.628906 25.625 27.628906 C 25.640625 27.628906 25.660156 27.636719 25.671875 27.648438 C 25.683594 27.660156 25.691406 27.675781 25.691406 27.695312 L 25.691406 27.742188 C 25.714844 27.707031 25.746094 27.675781 25.789062 27.652344 C 25.832031 27.625 25.875 27.613281 25.925781 27.613281 Z M 25.925781 27.613281 "/>
<path style=" stroke:none;fill-rule:nonzero;fill:rgb(14.117647%,12.54902%,21.960784%);fill-opacity:1;" d="M 27.894531 27.960938 C 27.894531 27.976562 27.886719 27.992188 27.875 28.003906 C 27.863281 28.015625 27.847656 28.019531 27.832031 28.019531 L 27.34375 28.019531 C 27.351562 28.085938 27.378906 28.140625 27.421875 28.183594 C 27.464844 28.222656 27.519531 28.242188 27.585938 28.242188 C 27.628906 28.242188 27.664062 28.238281 27.691406 28.222656 C 27.71875 28.210938 27.746094 28.195312 27.765625 28.175781 C 27.777344 28.164062 27.792969 28.160156 27.804688 28.160156 C 27.820312 28.160156 27.832031 28.167969 27.84375 28.179688 C 27.855469 28.1875 27.859375 28.199219 27.859375 28.214844 C 27.859375 28.234375 27.851562 28.253906 27.832031 28.269531 C 27.804688 28.292969 27.769531 28.316406 27.726562 28.335938 C 27.683594 28.355469 27.636719 28.363281 27.59375 28.363281 C 27.519531 28.363281 27.453125 28.347656 27.394531 28.316406 C 27.339844 28.285156 27.296875 28.242188 27.265625 28.1875 C 27.234375 28.128906 27.21875 28.066406 27.21875 27.996094 C 27.21875 27.917969 27.234375 27.851562 27.265625 27.792969 C 27.296875 27.734375 27.339844 27.691406 27.390625 27.660156 C 27.441406 27.628906 27.5 27.613281 27.558594 27.613281 C 27.617188 27.613281 27.671875 27.628906 27.722656 27.65625 C 27.773438 27.6875 27.816406 27.730469 27.847656 27.78125 C 27.878906 27.835938 27.894531 27.894531 27.894531 27.960938 Z M 27.558594 27.734375 C 27.507812 27.734375 27.464844 27.746094 27.425781 27.777344 C 27.386719 27.804688 27.363281 27.851562 27.351562 27.910156 L 27.757812 27.910156 L 27.757812 27.898438 C 27.753906 27.851562 27.730469 27.8125 27.691406 27.78125 C 27.652344 27.75 27.609375 27.734375 27.558594 27.734375 Z M 27.558594 27.734375 "/>
<path style=" stroke:none;fill-rule:nonzero;fill:rgb(14.117647%,12.54902%,21.960784%);fill-opacity:1;" d="M 29.300781 27.613281 C 29.324219 27.613281 29.34375 27.617188 29.359375 27.628906 C 29.378906 27.644531 29.386719 27.660156 29.386719 27.675781 C 29.386719 27.699219 29.382812 27.714844 29.371094 27.726562 C 29.359375 27.738281 29.347656 27.746094 29.328125 27.746094 C 29.320312 27.746094 29.308594 27.742188 29.292969 27.738281 C 29.273438 27.730469 29.257812 27.726562 29.246094 27.726562 C 29.21875 27.726562 29.191406 27.734375 29.164062 27.753906 C 29.136719 27.773438 29.117188 27.800781 29.097656 27.835938 C 29.082031 27.871094 29.074219 27.910156 29.074219 27.953125 L 29.074219 28.28125 C 29.074219 28.300781 29.066406 28.316406 29.054688 28.332031 C 29.042969 28.34375 29.027344 28.347656 29.007812 28.347656 C 28.988281 28.347656 28.972656 28.34375 28.960938 28.332031 C 28.949219 28.316406 28.941406 28.300781 28.941406 28.28125 L 28.941406 27.695312 C 28.941406 27.675781 28.949219 27.660156 28.960938 27.648438 C 28.972656 27.636719 28.988281 27.628906 29.007812 27.628906 C 29.027344 27.628906 29.042969 27.636719 29.054688 27.648438 C 29.066406 27.660156 29.074219 27.675781 29.074219 27.695312 L 29.074219 27.765625 C 29.09375 27.71875 29.121094 27.683594 29.164062 27.65625 C 29.203125 27.628906 29.25 27.613281 29.300781 27.613281 Z M 29.300781 27.613281 "/>
<path style=" stroke:none;fill-rule:nonzero;fill:rgb(14.117647%,12.54902%,21.960784%);fill-opacity:1;" d="M 23.257812 43.230469 C 23.25 43.21875 23.246094 43.203125 23.246094 43.191406 C 23.246094 43.175781 23.253906 43.160156 23.273438 43.144531 C 23.285156 43.140625 23.292969 43.136719 23.304688 43.136719 C 23.324219 43.136719 23.335938 43.144531 23.351562 43.15625 C 23.378906 43.1875 23.410156 43.210938 23.4375 43.226562 C 23.472656 43.242188 23.507812 43.25 23.554688 43.25 C 23.589844 43.25 23.617188 43.242188 23.644531 43.226562 C 23.671875 43.210938 23.683594 43.1875 23.683594 43.152344 C 23.683594 43.121094 23.671875 43.097656 23.644531 43.082031 C 23.617188 43.066406 23.578125 43.050781 23.527344 43.035156 C 23.476562 43.023438 23.433594 43.007812 23.398438 42.992188 C 23.363281 42.976562 23.335938 42.957031 23.3125 42.925781 C 23.289062 42.898438 23.277344 42.859375 23.277344 42.8125 C 23.277344 42.769531 23.289062 42.734375 23.3125 42.703125 C 23.335938 42.671875 23.367188 42.648438 23.40625 42.632812 C 23.445312 42.613281 23.488281 42.605469 23.53125 42.605469 C 23.578125 42.605469 23.621094 42.613281 23.664062 42.628906 C 23.707031 42.644531 23.742188 42.671875 23.769531 42.703125 C 23.78125 42.71875 23.789062 42.734375 23.789062 42.746094 C 23.789062 42.761719 23.78125 42.773438 23.765625 42.789062 C 23.757812 42.796875 23.746094 42.800781 23.730469 42.800781 C 23.714844 42.800781 23.699219 42.796875 23.691406 42.785156 C 23.671875 42.761719 23.648438 42.746094 23.621094 42.734375 C 23.59375 42.722656 23.5625 42.714844 23.527344 42.714844 C 23.492188 42.714844 23.460938 42.722656 23.4375 42.734375 C 23.414062 42.75 23.402344 42.773438 23.402344 42.808594 C 23.402344 42.839844 23.417969 42.863281 23.445312 42.878906 C 23.472656 42.894531 23.511719 42.910156 23.570312 42.925781 C 23.617188 42.9375 23.65625 42.953125 23.6875 42.96875 C 23.722656 42.980469 23.75 43.003906 23.769531 43.03125 C 23.792969 43.0625 23.804688 43.097656 23.804688 43.144531 C 23.804688 43.1875 23.792969 43.226562 23.765625 43.257812 C 23.742188 43.289062 23.707031 43.3125 23.667969 43.332031 C 23.628906 43.347656 23.585938 43.355469 23.542969 43.355469 C 23.484375 43.355469 23.429688 43.347656 23.382812 43.328125 C 23.332031 43.304688 23.292969 43.273438 23.257812 43.230469 Z M 23.257812 43.230469 "/>
<path style=" stroke:none;fill-rule:nonzero;fill:rgb(14.117647%,12.54902%,21.960784%);fill-opacity:1;" d="M 24.160156 43.273438 C 24.160156 43.296875 24.152344 43.3125 24.140625 43.324219 C 24.128906 43.335938 24.113281 43.34375 24.09375 43.34375 C 24.074219 43.34375 24.058594 43.335938 24.046875 43.324219 C 24.035156 43.3125 24.03125 43.296875 24.03125 43.273438 L 24.03125 42.679688 C 24.03125 42.664062 24.035156 42.644531 24.046875 42.632812 C 24.058594 42.621094 24.074219 42.613281 24.09375 42.613281 C 24.113281 42.613281 24.128906 42.621094 24.140625 42.632812 C 24.152344 42.644531 24.160156 42.664062 24.160156 42.679688 Z M 24.09375 42.523438 C 24.066406 42.523438 24.046875 42.519531 24.039062 42.507812 C 24.027344 42.5 24.019531 42.484375 24.019531 42.460938 L 24.019531 42.441406 C 24.019531 42.421875 24.027344 42.40625 24.039062 42.394531 C 24.050781 42.386719 24.070312 42.382812 24.09375 42.382812 C 24.121094 42.382812 24.136719 42.386719 24.148438 42.394531 C 24.164062 42.40625 24.167969 42.421875 24.167969 42.441406 L 24.167969 42.460938 C 24.167969 42.484375 24.164062 42.5 24.148438 42.511719 C 24.136719 42.519531 24.121094 42.523438 24.09375 42.523438 Z M 24.09375 42.523438 "/>
<path style=" stroke:none;fill-rule:nonzero;fill:rgb(14.117647%,12.54902%,21.960784%);fill-opacity:1;" d="M 24.796875 42.605469 C 24.964844 42.605469 25.046875 42.703125 25.046875 42.902344 L 25.046875 43.273438 C 25.046875 43.296875 25.039062 43.3125 25.027344 43.324219 C 25.015625 43.335938 25 43.34375 24.980469 43.34375 C 24.960938 43.34375 24.945312 43.335938 24.933594 43.324219 C 24.921875 43.3125 24.914062 43.296875 24.914062 43.273438 L 24.914062 42.902344 C 24.914062 42.851562 24.902344 42.808594 24.878906 42.773438 C 24.851562 42.742188 24.8125 42.726562 24.757812 42.726562 C 24.71875 42.726562 24.6875 42.734375 24.65625 42.75 C 24.628906 42.765625 24.605469 42.789062 24.585938 42.816406 C 24.570312 42.839844 24.5625 42.871094 24.5625 42.902344 L 24.5625 43.273438 C 24.5625 43.296875 24.554688 43.3125 24.542969 43.324219 C 24.53125 43.335938 24.515625 43.34375 24.496094 43.34375 C 24.476562 43.34375 24.460938 43.335938 24.449219 43.324219 C 24.4375 43.3125 24.429688 43.296875 24.429688 43.273438 L 24.429688 42.6875 C 24.429688 42.671875 24.4375 42.65625 24.449219 42.640625 C 24.460938 42.628906 24.476562 42.621094 24.496094 42.621094 C 24.515625 42.621094 24.53125 42.628906 24.542969 42.640625 C 24.554688 42.65625 24.5625 42.671875 24.5625 42.6875 L 24.5625 42.734375 C 24.585938 42.699219 24.617188 42.667969 24.660156 42.644531 C 24.703125 42.617188 24.75 42.605469 24.796875 42.605469 Z M 24.796875 42.605469 "/>
<path style=" stroke:none;fill-rule:nonzero;fill:rgb(14.117647%,12.54902%,21.960784%);fill-opacity:1;" d="M 25.636719 42.605469 C 25.707031 42.605469 25.769531 42.617188 25.816406 42.640625 C 25.863281 42.664062 25.890625 42.691406 25.890625 42.726562 C 25.890625 42.742188 25.882812 42.757812 25.871094 42.769531 C 25.863281 42.78125 25.851562 42.789062 25.835938 42.789062 C 25.824219 42.789062 25.8125 42.785156 25.804688 42.785156 C 25.800781 42.78125 25.792969 42.773438 25.777344 42.765625 C 25.773438 42.757812 25.765625 42.753906 25.753906 42.746094 C 25.742188 42.742188 25.726562 42.734375 25.707031 42.730469 C 25.683594 42.726562 25.667969 42.726562 25.652344 42.726562 C 25.601562 42.726562 25.558594 42.738281 25.523438 42.757812 C 25.488281 42.78125 25.457031 42.8125 25.4375 42.851562 C 25.417969 42.890625 25.410156 42.933594 25.410156 42.980469 C 25.410156 43.027344 25.417969 43.070312 25.4375 43.109375 C 25.457031 43.148438 25.484375 43.179688 25.519531 43.203125 C 25.558594 43.226562 25.597656 43.234375 25.644531 43.234375 C 25.691406 43.234375 25.730469 43.226562 25.761719 43.210938 C 25.765625 43.207031 25.773438 43.203125 25.785156 43.195312 C 25.792969 43.1875 25.804688 43.183594 25.808594 43.179688 C 25.816406 43.175781 25.824219 43.171875 25.835938 43.171875 C 25.851562 43.171875 25.867188 43.179688 25.878906 43.191406 C 25.886719 43.203125 25.894531 43.214844 25.894531 43.234375 C 25.894531 43.253906 25.882812 43.273438 25.855469 43.292969 C 25.832031 43.308594 25.800781 43.324219 25.761719 43.335938 C 25.71875 43.351562 25.675781 43.355469 25.628906 43.355469 C 25.558594 43.355469 25.496094 43.339844 25.445312 43.308594 C 25.390625 43.273438 25.351562 43.230469 25.320312 43.171875 C 25.292969 43.113281 25.277344 43.050781 25.277344 42.980469 C 25.277344 42.910156 25.292969 42.847656 25.324219 42.789062 C 25.351562 42.730469 25.394531 42.6875 25.449219 42.65625 C 25.503906 42.621094 25.566406 42.605469 25.636719 42.605469 Z M 25.636719 42.605469 "/>
<path style=" stroke:none;fill-rule:nonzero;fill:rgb(14.117647%,12.54902%,21.960784%);fill-opacity:1;" d="M 26.742188 42.953125 C 26.742188 42.972656 26.734375 42.984375 26.722656 42.996094 C 26.710938 43.007812 26.695312 43.011719 26.679688 43.011719 L 26.191406 43.011719 C 26.199219 43.078125 26.226562 43.132812 26.269531 43.175781 C 26.3125 43.214844 26.367188 43.234375 26.433594 43.234375 C 26.476562 43.234375 26.511719 43.230469 26.539062 43.21875 C 26.566406 43.203125 26.59375 43.1875 26.613281 43.167969 C 26.625 43.160156 26.640625 43.15625 26.652344 43.15625 C 26.667969 43.15625 26.679688 43.160156 26.691406 43.171875 C 26.703125 43.179688 26.707031 43.195312 26.707031 43.207031 C 26.707031 43.226562 26.699219 43.246094 26.679688 43.261719 C 26.652344 43.289062 26.617188 43.308594 26.574219 43.328125 C 26.53125 43.347656 26.484375 43.355469 26.441406 43.355469 C 26.367188 43.355469 26.300781 43.339844 26.242188 43.3125 C 26.1875 43.277344 26.144531 43.234375 26.113281 43.179688 C 26.082031 43.121094 26.066406 43.058594 26.066406 42.988281 C 26.066406 42.910156 26.082031 42.84375 26.113281 42.785156 C 26.144531 42.726562 26.1875 42.683594 26.238281 42.652344 C 26.289062 42.621094 26.347656 42.605469 26.40625 42.605469 C 26.464844 42.605469 26.519531 42.621094 26.570312 42.648438 C 26.621094 42.679688 26.664062 42.722656 26.695312 42.773438 C 26.726562 42.828125 26.742188 42.886719 26.742188 42.953125 Z M 26.40625 42.726562 C 26.355469 42.726562 26.3125 42.738281 26.273438 42.769531 C 26.234375 42.796875 26.210938 42.84375 26.199219 42.902344 L 26.605469 42.902344 L 26.605469 42.890625 C 26.601562 42.84375 26.578125 42.804688 26.539062 42.773438 C 26.5 42.742188 26.457031 42.726562 26.40625 42.726562 Z M 26.40625 42.726562 "/>
<path style=" stroke:none;fill-rule:nonzero;fill:rgb(14.117647%,12.54902%,21.960784%);fill-opacity:1;" d="M 23.992188 44.519531 C 24.007812 44.519531 24.023438 44.527344 24.035156 44.539062 C 24.046875 44.550781 24.054688 44.566406 24.054688 44.582031 C 24.054688 44.601562 24.046875 44.613281 24.035156 44.625 C 24.023438 44.636719 24.007812 44.640625 23.992188 44.640625 L 23.503906 44.640625 C 23.484375 44.640625 23.46875 44.636719 23.457031 44.625 C 23.445312 44.613281 23.4375 44.597656 23.4375 44.578125 C 23.4375 44.5625 23.445312 44.546875 23.457031 44.53125 L 23.765625 44.199219 C 23.851562 44.109375 23.894531 44.027344 23.894531 43.957031 C 23.894531 43.910156 23.875 43.867188 23.84375 43.835938 C 23.8125 43.800781 23.769531 43.785156 23.71875 43.785156 C 23.683594 43.785156 23.652344 43.796875 23.621094 43.816406 C 23.589844 43.835938 23.566406 43.863281 23.546875 43.898438 C 23.53125 43.917969 23.515625 43.925781 23.496094 43.925781 C 23.476562 43.925781 23.460938 43.921875 23.449219 43.910156 C 23.4375 43.898438 23.429688 43.882812 23.429688 43.867188 C 23.429688 43.859375 23.433594 43.847656 23.441406 43.835938 C 23.449219 43.824219 23.457031 43.8125 23.46875 43.796875 C 23.5 43.757812 23.539062 43.726562 23.585938 43.703125 C 23.632812 43.675781 23.679688 43.664062 23.726562 43.664062 C 23.789062 43.664062 23.839844 43.675781 23.882812 43.703125 C 23.929688 43.726562 23.964844 43.761719 23.988281 43.804688 C 24.015625 43.847656 24.027344 43.898438 24.027344 43.953125 C 24.027344 44.058594 23.96875 44.171875 23.855469 44.292969 L 23.648438 44.519531 Z M 23.992188 44.519531 "/>
<path style=" stroke:none;fill-rule:nonzero;fill:rgb(14.117647%,12.54902%,21.960784%);fill-opacity:1;" d="M 24.601562 44.65625 C 24.523438 44.65625 24.460938 44.636719 24.40625 44.59375 C 24.351562 44.550781 24.3125 44.492188 24.285156 44.417969 C 24.257812 44.34375 24.246094 44.257812 24.246094 44.160156 C 24.246094 44.0625 24.257812 43.976562 24.285156 43.90625 C 24.3125 43.828125 24.351562 43.769531 24.40625 43.730469 C 24.460938 43.6875 24.523438 43.664062 24.601562 43.664062 C 24.675781 43.664062 24.738281 43.6875 24.792969 43.730469 C 24.847656 43.769531 24.886719 43.828125 24.914062 43.90625 C 24.941406 43.976562 24.953125 44.0625 24.953125 44.160156 C 24.953125 44.257812 24.941406 44.34375 24.914062 44.417969 C 24.886719 44.492188 24.847656 44.550781 24.792969 44.59375 C 24.738281 44.636719 24.675781 44.65625 24.601562 44.65625 Z M 24.601562 44.523438 C 24.667969 44.523438 24.71875 44.492188 24.757812 44.429688 C 24.792969 44.367188 24.8125 44.277344 24.8125 44.160156 C 24.8125 44.046875 24.792969 43.957031 24.757812 43.894531 C 24.71875 43.832031 24.667969 43.796875 24.601562 43.796875 C 24.535156 43.796875 24.480469 43.832031 24.445312 43.894531 C 24.40625 43.957031 24.386719 44.046875 24.386719 44.160156 C 24.386719 44.277344 24.40625 44.367188 24.445312 44.429688 C 24.480469 44.492188 24.535156 44.523438 24.601562 44.523438 Z M 24.601562 44.523438 "/>
<path style=" stroke:none;fill-rule:nonzero;fill:rgb(14.117647%,12.54902%,21.960784%);fill-opacity:1;" d="M 25.742188 44.519531 C 25.757812 44.519531 25.773438 44.527344 25.785156 44.539062 C 25.796875 44.550781 25.804688 44.566406 25.804688 44.582031 C 25.804688 44.601562 25.796875 44.613281 25.785156 44.625 C 25.773438 44.636719 25.757812 44.640625 25.742188 44.640625 L 25.253906 44.640625 C 25.234375 44.640625 25.21875 44.636719 25.207031 44.625 C 25.195312 44.613281 25.191406 44.597656 25.191406 44.578125 C 25.191406 44.5625 25.195312 44.546875 25.207031 44.53125 L 25.515625 44.199219 C 25.601562 44.109375 25.644531 44.027344 25.644531 43.957031 C 25.644531 43.910156 25.628906 43.867188 25.59375 43.835938 C 25.5625 43.800781 25.519531 43.785156 25.472656 43.785156 C 25.4375 43.785156 25.402344 43.796875 25.375 43.816406 C 25.34375 43.835938 25.316406 43.863281 25.296875 43.898438 C 25.28125 43.917969 25.265625 43.925781 25.246094 43.925781 C 25.230469 43.925781 25.214844 43.921875 25.199219 43.910156 C 25.1875 43.898438 25.183594 43.882812 25.183594 43.867188 C 25.183594 43.859375 25.183594 43.847656 25.191406 43.835938 C 25.199219 43.824219 25.207031 43.8125 25.222656 43.796875 C 25.25 43.757812 25.289062 43.726562 25.335938 43.703125 C 25.382812 43.675781 25.429688 43.664062 25.476562 43.664062 C 25.539062 43.664062 25.589844 43.675781 25.636719 43.703125 C 25.683594 43.726562 25.714844 43.761719 25.738281 43.804688 C 25.765625 43.847656 25.777344 43.898438 25.777344 43.953125 C 25.777344 44.058594 25.71875 44.171875 25.605469 44.292969 L 25.402344 44.519531 Z M 25.742188 44.519531 "/>
<path style=" stroke:none;fill-rule:nonzero;fill:rgb(14.117647%,12.54902%,21.960784%);fill-opacity:1;" d="M 26.3125 44.035156 C 26.363281 44.035156 26.410156 44.046875 26.453125 44.074219 C 26.496094 44.097656 26.527344 44.132812 26.550781 44.179688 C 26.578125 44.222656 26.589844 44.273438 26.589844 44.328125 C 26.589844 44.394531 26.574219 44.453125 26.542969 44.503906 C 26.511719 44.550781 26.46875 44.589844 26.417969 44.617188 C 26.363281 44.644531 26.300781 44.65625 26.234375 44.65625 C 26.199219 44.65625 26.160156 44.652344 26.125 44.640625 C 26.09375 44.632812 26.0625 44.617188 26.039062 44.597656 C 26.015625 44.582031 26 44.5625 26 44.539062 C 26 44.523438 26.007812 44.507812 26.019531 44.492188 C 26.03125 44.476562 26.046875 44.46875 26.066406 44.46875 C 26.082031 44.46875 26.097656 44.476562 26.113281 44.488281 C 26.152344 44.523438 26.199219 44.539062 26.253906 44.539062 C 26.292969 44.539062 26.324219 44.53125 26.355469 44.515625 C 26.386719 44.5 26.410156 44.476562 26.429688 44.445312 C 26.449219 44.414062 26.457031 44.378906 26.457031 44.335938 C 26.457031 44.277344 26.4375 44.234375 26.402344 44.199219 C 26.363281 44.167969 26.320312 44.152344 26.269531 44.152344 C 26.253906 44.152344 26.234375 44.15625 26.207031 44.164062 C 26.1875 44.167969 26.171875 44.171875 26.160156 44.171875 C 26.144531 44.171875 26.132812 44.164062 26.121094 44.15625 C 26.113281 44.140625 26.109375 44.128906 26.109375 44.109375 C 26.109375 44.101562 26.109375 44.089844 26.113281 44.082031 C 26.117188 44.078125 26.121094 44.066406 26.128906 44.054688 L 26.363281 43.800781 L 26.046875 43.800781 C 26.027344 43.800781 26.015625 43.796875 26 43.785156 C 25.988281 43.769531 25.984375 43.757812 25.984375 43.738281 C 25.984375 43.722656 25.988281 43.707031 26 43.695312 C 26.015625 43.683594 26.027344 43.679688 26.046875 43.679688 L 26.484375 43.679688 C 26.503906 43.679688 26.519531 43.6875 26.53125 43.699219 C 26.546875 43.710938 26.550781 43.726562 26.550781 43.746094 C 26.550781 43.761719 26.542969 43.78125 26.527344 43.796875 Z M 26.3125 44.035156 "/>
</g>
</svg>
