<svg xmlns="http://www.w3.org/2000/svg" xmlns:xlink="http://www.w3.org/1999/xlink" width="500" height="250" preserveAspectRatio="xMidYMid meet" version="1.0" viewBox="0 0 375 187.5" zoomAndPan="magnify"><defs><clipPath id="69cf47fd04"><path d="M 0.5 0 L 374.5 0 L 374.5 187 L 0.5 187 Z M 0.5 0" clip-rule="nonzero"/></clipPath></defs><g clip-path="url(#69cf47fd04)"><path fill="#fff" fill-opacity="1" fill-rule="nonzero" d="M 0.5 0 L 374.5 0 L 374.5 187 L 0.5 187 Z M 0.5 0"/><path fill="#1f0322" fill-opacity="1" fill-rule="nonzero" d="M 0.5 0 L 374.5 0 L 374.5 187 L 0.5 187 Z M 0.5 0"/></g><g fill="#fff" fill-opacity="1"><g><g><path d="M 21.53125 -60.46875 C 24.332031 -60.46875 26.460938 -60.144531 27.921875 -59.5 C 29.378906 -58.851562 30.664062 -58.140625 31.78125 -57.359375 C 32.457031 -56.960938 33.003906 -56.664062 33.421875 -56.46875 C 33.847656 -56.269531 34.253906 -56.171875 34.640625 -56.171875 C 35.203125 -56.171875 35.609375 -56.476562 35.859375 -57.09375 C 36.117188 -57.71875 36.332031 -58.644531 36.5 -59.875 L 38.4375 -59.875 C 38.375 -58.914062 38.300781 -57.78125 38.21875 -56.46875 C 38.132812 -55.15625 38.078125 -53.414062 38.046875 -51.25 C 38.023438 -49.09375 38.015625 -46.25 38.015625 -42.71875 L 36.078125 -42.71875 C 35.910156 -45.40625 35.320312 -47.984375 34.3125 -50.453125 C 33.300781 -52.921875 31.828125 -54.9375 29.890625 -56.5 C 27.960938 -58.070312 25.425781 -58.859375 22.28125 -58.859375 C 19.3125 -58.859375 16.859375 -57.960938 14.921875 -56.171875 C 12.992188 -54.378906 12.03125 -52.023438 12.03125 -49.109375 C 12.03125 -46.585938 12.671875 -44.472656 13.953125 -42.765625 C 15.242188 -41.054688 16.96875 -39.515625 19.125 -38.140625 C 21.289062 -36.765625 23.632812 -35.289062 26.15625 -33.71875 C 29.070312 -31.925781 31.664062 -30.144531 33.9375 -28.375 C 36.207031 -26.613281 38 -24.664062 39.3125 -22.53125 C 40.632812 -20.40625 41.296875 -17.828125 41.296875 -14.796875 C 41.296875 -11.210938 40.476562 -8.242188 38.84375 -5.890625 C 37.21875 -3.535156 35.0625 -1.769531 32.375 -0.59375 C 29.6875 0.582031 26.71875 1.171875 23.46875 1.171875 C 20.488281 1.171875 18.128906 0.832031 16.390625 0.15625 C 14.660156 -0.507812 13.175781 -1.207031 11.9375 -1.9375 C 10.707031 -2.71875 9.753906 -3.109375 9.078125 -3.109375 C 8.515625 -3.109375 8.109375 -2.800781 7.859375 -2.1875 C 7.609375 -1.570312 7.398438 -0.644531 7.234375 0.59375 L 5.296875 0.59375 C 5.410156 -0.582031 5.476562 -1.96875 5.5 -3.5625 C 5.53125 -5.164062 5.5625 -7.253906 5.59375 -9.828125 C 5.625 -12.410156 5.640625 -15.664062 5.640625 -19.59375 L 7.5625 -19.59375 C 7.789062 -16.226562 8.421875 -13.085938 9.453125 -10.171875 C 10.492188 -7.253906 12.09375 -4.910156 14.25 -3.140625 C 16.40625 -1.378906 19.28125 -0.5 22.875 -0.5 C 24.726562 -0.5 26.476562 -0.878906 28.125 -1.640625 C 29.78125 -2.398438 31.140625 -3.601562 32.203125 -5.25 C 33.273438 -6.90625 33.8125 -9.050781 33.8125 -11.6875 C 33.8125 -13.988281 33.265625 -15.992188 32.171875 -17.703125 C 31.078125 -19.410156 29.546875 -21.003906 27.578125 -22.484375 C 25.617188 -23.972656 23.320312 -25.503906 20.6875 -27.078125 C 18.050781 -28.703125 15.582031 -30.351562 13.28125 -32.03125 C 10.988281 -33.71875 9.15625 -35.664062 7.78125 -37.875 C 6.40625 -40.09375 5.71875 -42.773438 5.71875 -45.921875 C 5.71875 -49.222656 6.457031 -51.953125 7.9375 -54.109375 C 9.425781 -56.273438 11.375 -57.875 13.78125 -58.90625 C 16.195312 -59.945312 18.78125 -60.46875 21.53125 -60.46875 Z M 21.53125 -60.46875" transform="translate(41.407859, 106.698518)"/></g></g></g><g fill="#fff" fill-opacity="1"><g><g><path d="M 49.78125 -59.53125 C 49.5625 -57.40625 49.40625 -55.347656 49.3125 -53.359375 C 49.226562 -51.367188 49.1875 -49.84375 49.1875 -48.78125 C 49.1875 -47.425781 49.210938 -46.160156 49.265625 -44.984375 C 49.328125 -43.804688 49.390625 -42.769531 49.453125 -41.875 L 47.515625 -41.875 C 47.117188 -45.800781 46.582031 -48.898438 45.90625 -51.171875 C 45.238281 -53.441406 44.0625 -55.082031 42.375 -56.09375 C 40.695312 -57.101562 38.09375 -57.609375 34.5625 -57.609375 L 30.015625 -57.609375 L 30.015625 -9.75 C 30.015625 -7.507812 30.222656 -5.828125 30.640625 -4.703125 C 31.066406 -3.585938 31.894531 -2.832031 33.125 -2.4375 C 34.363281 -2.039062 36.160156 -1.789062 38.515625 -1.6875 L 38.515625 0 C 37.054688 -0.113281 35.203125 -0.179688 32.953125 -0.203125 C 30.710938 -0.234375 28.445312 -0.25 26.15625 -0.25 C 23.632812 -0.25 21.265625 -0.234375 19.046875 -0.203125 C 16.828125 -0.179688 15.046875 -0.113281 13.703125 0 L 13.703125 -1.6875 C 16.054688 -1.789062 17.847656 -2.039062 19.078125 -2.4375 C 20.316406 -2.832031 21.144531 -3.585938 21.5625 -4.703125 C 21.988281 -5.828125 22.203125 -7.507812 22.203125 -9.75 L 22.203125 -57.609375 L 17.65625 -57.609375 C 14.1875 -57.609375 11.59375 -57.101562 9.875 -56.09375 C 8.164062 -55.082031 6.972656 -53.441406 6.296875 -51.171875 C 5.628906 -48.898438 5.097656 -45.800781 4.703125 -41.875 L 2.78125 -41.875 C 2.882812 -42.769531 2.953125 -43.804688 2.984375 -44.984375 C 3.015625 -46.160156 3.03125 -47.425781 3.03125 -48.78125 C 3.03125 -49.84375 2.988281 -51.367188 2.90625 -53.359375 C 2.820312 -55.347656 2.664062 -57.40625 2.4375 -59.53125 C 4.789062 -59.476562 7.351562 -59.421875 10.125 -59.359375 C 12.90625 -59.304688 15.695312 -59.28125 18.5 -59.28125 C 21.300781 -59.28125 23.851562 -59.28125 26.15625 -59.28125 C 28.445312 -59.28125 30.976562 -59.28125 33.75 -59.28125 C 36.53125 -59.28125 39.320312 -59.304688 42.125 -59.359375 C 44.925781 -59.421875 47.476562 -59.476562 49.78125 -59.53125 Z M 49.78125 -59.53125" transform="translate(85.132306, 106.698518)"/></g></g></g><g fill="#fff" fill-opacity="1"><g><g><path d="M 27.15625 -59.953125 L 47.6875 -7.0625 C 48.519531 -4.9375 49.46875 -3.519531 50.53125 -2.8125 C 51.601562 -2.113281 52.585938 -1.738281 53.484375 -1.6875 L 53.484375 0 C 52.359375 -0.113281 50.984375 -0.179688 49.359375 -0.203125 C 47.734375 -0.234375 46.109375 -0.25 44.484375 -0.25 C 42.296875 -0.25 40.25 -0.234375 38.34375 -0.203125 C 36.4375 -0.179688 34.894531 -0.113281 33.71875 0 L 33.71875 -1.6875 C 36.582031 -1.789062 38.40625 -2.273438 39.1875 -3.140625 C 39.96875 -4.015625 39.800781 -5.882812 38.6875 -8.75 L 23.046875 -50.546875 L 24.390625 -51.640625 L 9.75 -13.625 C 8.851562 -11.382812 8.320312 -9.492188 8.15625 -7.953125 C 7.988281 -6.410156 8.140625 -5.1875 8.609375 -4.28125 C 9.085938 -3.382812 9.898438 -2.738281 11.046875 -2.34375 C 12.203125 -1.957031 13.648438 -1.738281 15.390625 -1.6875 L 15.390625 0 C 13.816406 -0.113281 12.175781 -0.179688 10.46875 -0.203125 C 8.757812 -0.234375 7.175781 -0.25 5.71875 -0.25 C 4.3125 -0.25 3.117188 -0.234375 2.140625 -0.203125 C 1.160156 -0.179688 0.25 -0.113281 -0.59375 0 L -0.59375 -1.6875 C 0.53125 -1.96875 1.679688 -2.625 2.859375 -3.65625 C 4.035156 -4.695312 5.101562 -6.476562 6.0625 -9 L 25.8125 -59.953125 C 26.039062 -59.953125 26.265625 -59.953125 26.484375 -59.953125 C 26.710938 -59.953125 26.9375 -59.953125 27.15625 -59.953125 Z M 37.421875 -24.21875 L 37.421875 -22.53125 L 12.359375 -22.53125 L 13.203125 -24.21875 Z M 37.421875 -24.21875" transform="translate(135.667688, 106.698518)"/></g></g></g><g fill="#fff" fill-opacity="1"><g><g><path d="M 31.203125 -60.71875 C 34.898438 -60.71875 37.9375 -60.171875 40.3125 -59.078125 C 42.695312 -57.984375 44.816406 -56.707031 46.671875 -55.25 C 47.796875 -54.40625 48.648438 -54.304688 49.234375 -54.953125 C 49.828125 -55.597656 50.234375 -57.125 50.453125 -59.53125 L 52.390625 -59.53125 C 52.273438 -57.457031 52.1875 -54.9375 52.125 -51.96875 C 52.070312 -49 52.046875 -45.078125 52.046875 -40.203125 L 50.125 -40.203125 C 49.726562 -42.609375 49.359375 -44.523438 49.015625 -45.953125 C 48.679688 -47.390625 48.273438 -48.609375 47.796875 -49.609375 C 47.328125 -50.617188 46.703125 -51.628906 45.921875 -52.640625 C 44.179688 -54.941406 41.992188 -56.609375 39.359375 -57.640625 C 36.722656 -58.679688 33.945312 -59.203125 31.03125 -59.203125 C 28.28125 -59.203125 25.796875 -58.515625 23.578125 -57.140625 C 21.367188 -55.765625 19.460938 -53.785156 17.859375 -51.203125 C 16.265625 -48.628906 15.03125 -45.519531 14.15625 -41.875 C 13.289062 -38.226562 12.859375 -34.132812 12.859375 -29.59375 C 12.859375 -24.882812 13.332031 -20.722656 14.28125 -17.109375 C 15.238281 -13.492188 16.570312 -10.453125 18.28125 -7.984375 C 20 -5.515625 22.019531 -3.648438 24.34375 -2.390625 C 26.664062 -1.128906 29.175781 -0.5 31.875 -0.5 C 34.394531 -0.5 37.023438 -1.003906 39.765625 -2.015625 C 42.515625 -3.023438 44.675781 -4.648438 46.25 -6.890625 C 47.488281 -8.515625 48.34375 -10.28125 48.8125 -12.1875 C 49.289062 -14.09375 49.726562 -16.757812 50.125 -20.1875 L 52.046875 -20.1875 C 52.046875 -15.082031 52.070312 -10.972656 52.125 -7.859375 C 52.1875 -4.753906 52.273438 -2.132812 52.390625 0 L 50.453125 0 C 50.234375 -2.40625 49.851562 -3.914062 49.3125 -4.53125 C 48.78125 -5.15625 47.898438 -5.070312 46.671875 -4.28125 C 44.597656 -2.832031 42.394531 -1.5625 40.0625 -0.46875 C 37.738281 0.625 34.753906 1.171875 31.109375 1.171875 C 25.785156 1.171875 21.117188 -0.03125 17.109375 -2.4375 C 13.097656 -4.851562 9.984375 -8.328125 7.765625 -12.859375 C 5.554688 -17.398438 4.453125 -22.867188 4.453125 -29.265625 C 4.453125 -35.546875 5.601562 -41.039062 7.90625 -45.75 C 10.207031 -50.457031 13.359375 -54.128906 17.359375 -56.765625 C 21.367188 -59.398438 25.984375 -60.71875 31.203125 -60.71875 Z M 31.203125 -60.71875" transform="translate(186.959831, 106.698518)"/></g></g></g><g fill="#fff" fill-opacity="1"><g><g><path d="M 45.5 -59.53125 C 45.269531 -57.570312 45.113281 -55.664062 45.03125 -53.8125 C 44.945312 -51.96875 44.90625 -50.566406 44.90625 -49.609375 C 44.90625 -48.609375 44.929688 -47.644531 44.984375 -46.71875 C 45.046875 -45.789062 45.101562 -45.019531 45.15625 -44.40625 L 43.21875 -44.40625 C 42.882812 -47.707031 42.410156 -50.328125 41.796875 -52.265625 C 41.179688 -54.203125 40.128906 -55.578125 38.640625 -56.390625 C 37.148438 -57.203125 34.921875 -57.609375 31.953125 -57.609375 L 24.96875 -57.609375 C 23.0625 -57.609375 21.617188 -57.453125 20.640625 -57.140625 C 19.660156 -56.828125 19.003906 -56.179688 18.671875 -55.203125 C 18.335938 -54.222656 18.171875 -52.695312 18.171875 -50.625 L 18.171875 -8.90625 C 18.171875 -6.894531 18.335938 -5.382812 18.671875 -4.375 C 19.003906 -3.363281 19.660156 -2.703125 20.640625 -2.390625 C 21.617188 -2.085938 23.0625 -1.9375 24.96875 -1.9375 L 31.109375 -1.9375 C 34.640625 -1.9375 37.316406 -2.410156 39.140625 -3.359375 C 40.960938 -4.316406 42.28125 -5.875 43.09375 -8.03125 C 43.90625 -10.1875 44.507812 -13.113281 44.90625 -16.8125 L 46.84375 -16.8125 C 46.675781 -15.300781 46.59375 -13.285156 46.59375 -10.765625 C 46.59375 -9.703125 46.632812 -8.175781 46.71875 -6.1875 C 46.800781 -4.195312 46.953125 -2.132812 47.171875 0 C 44.316406 -0.113281 41.09375 -0.179688 37.5 -0.203125 C 33.914062 -0.234375 30.722656 -0.25 27.921875 -0.25 C 26.679688 -0.25 25.09375 -0.25 23.15625 -0.25 C 21.226562 -0.25 19.144531 -0.234375 16.90625 -0.203125 C 14.664062 -0.179688 12.394531 -0.15625 10.09375 -0.125 C 7.789062 -0.09375 5.601562 -0.0507812 3.53125 0 L 3.53125 -1.6875 C 5.4375 -1.789062 6.878906 -2.007812 7.859375 -2.34375 C 8.835938 -2.6875 9.492188 -3.363281 9.828125 -4.375 C 10.171875 -5.382812 10.34375 -6.894531 10.34375 -8.90625 L 10.34375 -50.625 C 10.34375 -52.695312 10.171875 -54.222656 9.828125 -55.203125 C 9.492188 -56.179688 8.835938 -56.851562 7.859375 -57.21875 C 6.878906 -57.582031 5.4375 -57.796875 3.53125 -57.859375 L 3.53125 -59.53125 C 5.601562 -59.476562 7.789062 -59.4375 10.09375 -59.40625 C 12.394531 -59.382812 14.664062 -59.359375 16.90625 -59.328125 C 19.144531 -59.296875 21.226562 -59.28125 23.15625 -59.28125 C 25.09375 -59.28125 26.679688 -59.28125 27.921875 -59.28125 C 30.492188 -59.28125 33.421875 -59.296875 36.703125 -59.328125 C 39.984375 -59.359375 42.914062 -59.425781 45.5 -59.53125 Z M 31.03125 -30.78125 C 31.03125 -30.78125 31.03125 -30.5 31.03125 -29.9375 C 31.03125 -29.375 31.03125 -29.09375 31.03125 -29.09375 L 15.640625 -29.09375 C 15.640625 -29.09375 15.640625 -29.375 15.640625 -29.9375 C 15.640625 -30.5 15.640625 -30.78125 15.640625 -30.78125 Z M 33.46875 -41.875 C 33.25 -38.675781 33.148438 -36.238281 33.171875 -34.5625 C 33.203125 -32.882812 33.21875 -31.34375 33.21875 -29.9375 C 33.21875 -28.53125 33.242188 -26.988281 33.296875 -25.3125 C 33.359375 -23.632812 33.5 -21.195312 33.71875 -18 L 31.78125 -18 C 31.5625 -19.789062 31.296875 -21.539062 30.984375 -23.25 C 30.679688 -24.957031 30.007812 -26.359375 28.96875 -27.453125 C 27.9375 -28.546875 26.1875 -29.09375 23.71875 -29.09375 L 23.71875 -30.78125 C 25.5625 -30.78125 26.972656 -31.15625 27.953125 -31.90625 C 28.941406 -32.664062 29.660156 -33.632812 30.109375 -34.8125 C 30.554688 -35.988281 30.863281 -37.207031 31.03125 -38.46875 C 31.195312 -39.726562 31.363281 -40.863281 31.53125 -41.875 Z M 33.46875 -41.875" transform="translate(243.128957, 106.698518)"/></g></g></g><g fill="#fff" fill-opacity="1"><g><g><path d="M 49.453125 -59.53125 L 49.453125 -57.859375 C 48.378906 -57.628906 47.3125 -56.941406 46.25 -55.796875 C 45.1875 -54.648438 44.007812 -52.84375 42.71875 -50.375 L 25.734375 -16.734375 L 24.296875 -16.734375 L 4.625 -53.0625 C 3.5 -55.132812 2.554688 -56.4375 1.796875 -56.96875 C 1.046875 -57.5 0.363281 -57.765625 -0.25 -57.765625 L -0.25 -59.53125 C 0.863281 -59.476562 2.023438 -59.421875 3.234375 -59.359375 C 4.441406 -59.304688 5.742188 -59.28125 7.140625 -59.28125 C 8.992188 -59.28125 10.972656 -59.296875 13.078125 -59.328125 C 15.179688 -59.359375 17.128906 -59.425781 18.921875 -59.53125 L 18.921875 -57.765625 C 17.515625 -57.765625 16.28125 -57.597656 15.21875 -57.265625 C 14.15625 -56.929688 13.453125 -56.316406 13.109375 -55.421875 C 12.773438 -54.523438 13.03125 -53.265625 13.875 -51.640625 L 28.09375 -24.390625 L 27.421875 -23.875 L 38.59375 -46.171875 C 40.164062 -49.253906 40.9375 -51.632812 40.90625 -53.3125 C 40.882812 -55 40.226562 -56.160156 38.9375 -56.796875 C 37.644531 -57.441406 35.820312 -57.796875 33.46875 -57.859375 L 33.46875 -59.53125 C 35.09375 -59.476562 36.742188 -59.421875 38.421875 -59.359375 C 40.109375 -59.304688 41.679688 -59.28125 43.140625 -59.28125 C 44.597656 -59.28125 45.800781 -59.304688 46.75 -59.359375 C 47.707031 -59.421875 48.609375 -59.476562 49.453125 -59.53125 Z M 29.515625 -25.5625 L 29.515625 -8.90625 C 29.515625 -6.894531 29.679688 -5.382812 30.015625 -4.375 C 30.359375 -3.363281 31.019531 -2.6875 32 -2.34375 C 32.976562 -2.007812 34.421875 -1.789062 36.328125 -1.6875 L 36.328125 0 C 35.035156 -0.113281 33.421875 -0.179688 31.484375 -0.203125 C 29.554688 -0.234375 27.613281 -0.25 25.65625 -0.25 C 23.46875 -0.25 21.421875 -0.234375 19.515625 -0.203125 C 17.609375 -0.179688 16.066406 -0.113281 14.890625 0 L 14.890625 -1.6875 C 16.796875 -1.789062 18.238281 -2.007812 19.21875 -2.34375 C 20.195312 -2.6875 20.851562 -3.363281 21.1875 -4.375 C 21.53125 -5.382812 21.703125 -6.894531 21.703125 -8.90625 L 21.703125 -26.15625 L 26.234375 -20.9375 Z M 29.515625 -25.5625" transform="translate(292.655322, 106.698518)"/></g></g></g><path fill="none" stroke="#f6f5f2" stroke-linecap="butt" stroke-linejoin="miter" stroke-miterlimit="4" stroke-opacity="1" stroke-width="4.283" d="M 70.516497 73.523937 C 61.821497 69.429714 36.055051 71.351492 19.155938 76.035826 C 2.089715 80.803715 2.340382 86.323604 8.366826 96.198827 C 12.215604 102.470716 14.972938 108.241272 15.808494 115.186828 C 13.05116 115.437495 5.687826 116.10594 2.758159 117.359273 C 0.335048 118.445495 0.00082584 120.539607 1.504826 120.539607 C 2.17327 120.539607 2.92527 120.038273 3.181159 119.369829 C 3.181159 119.286273 3.181159 119.286273 3.264715 119.286273 C 5.604271 117.860606 13.301827 117.275717 16.05916 117.025051 C 16.226271 120.038273 16.142716 123.213385 15.641382 126.72794 C 14.55516 129.824718 7.949049 150.233164 8.11616 152.99572 C 8.11616 154.666831 9.954382 154.081942 10.539271 152.912164 C 10.706382 152.661498 16.393383 135.428163 17.735494 126.560829 C 18.069716 125.474607 19.323049 121.709384 21.082938 116.774384 C 31.370717 116.189495 41.073606 116.523717 41.407829 116.523717 C 43.07894 116.440162 43.919718 113.928273 42.243384 114.011828 C 34.885273 114.178939 29.109495 114.351273 21.751383 114.769051 C 26.18505 102.052939 33.125384 83.733382 36.389273 82.391271 C 36.472828 82.391271 37.642606 82.307715 38.060384 81.221493 C 38.561717 79.801048 36.556384 79.466826 34.462273 81.722826 C 30.200939 86.156493 23.004716 105.567494 19.657272 114.852606 C 19.155938 114.936162 18.571049 114.936162 18.069716 115.019717 C 17.150605 107.238606 13.886716 100.883161 10.205049 94.856716 C 5.102937 86.490715 3.849604 81.555715 18.988827 77.957604 C 34.885273 74.197603 60.897163 72.187048 68.761831 75.785159 C 69.430275 76.119381 70.600053 76.787826 70.349386 77.706937 C 69.764497 79.216159 72.109275 79.216159 72.694164 77.706937 C 73.52972 75.618048 72.109275 74.364714 70.516497 73.523937 Z M 18.988827 116.85794 C 18.654605 117.60994 18.487494 118.278384 18.320383 118.78494 C 18.320383 118.111273 18.236827 117.526384 18.236827 116.941495 C 18.487494 116.941495 18.73816 116.85794 18.988827 116.85794 Z M 108.158278 116.85794 C 104.560166 120.706718 99.207388 126.560829 93.019055 130.409607 C 87.081387 134.17483 81.556276 134.425496 82.898387 127.647052 C 83.566832 124.639051 84.903721 121.709384 85.572165 119.035607 C 86.491276 115.35394 84.235276 114.936162 81.389165 118.529051 C 79.634498 120.957384 78.130498 123.636385 76.119942 126.72794 C 72.521831 131.997163 68.589497 135.595274 69.012497 130.660274 C 69.430275 125.558163 74.950164 114.178939 77.958165 118.194829 C 78.798942 119.286273 81.222054 117.359273 80.386498 116.273051 C 75.535053 109.83405 67.336164 124.388385 66.333497 131.245163 C 65.665053 137.271608 71.60272 137.856497 77.958165 127.229274 C 79.550943 124.555496 81.556276 120.790273 82.731276 119.035607 C 84.151721 116.774384 84.569498 117.60994 83.984609 119.202718 C 83.149054 121.291607 81.47272 124.722607 80.637165 127.986496 C 78.297609 136.765052 85.739276 137.522274 93.85461 132.164274 C 99.374499 128.571385 104.977944 122.54494 109.077389 117.442829 C 109.6675 116.690829 108.826722 116.189495 108.158278 116.85794 Z M 147.810614 116.774384 C 142.708502 121.208051 137.940613 125.725274 133.590502 127.90294 C 124.556057 132.503719 124.806723 125.307496 124.973835 121.291607 C 125.391612 112.09005 118.362501 113.259828 113.176834 119.954718 C 109.2445 124.973274 106.147722 132.080719 104.393055 133.589941 C 103.306833 131.328718 107.991167 120.706718 110.080056 116.85794 C 110.920834 115.270384 108.576056 114.769051 107.7405 116.440162 C 104.810833 121.709384 101.969944 129.908274 102.304166 133.757052 C 102.554833 135.929497 104.3095 136.43083 106.570722 133.506385 C 108.659611 130.74383 111.505723 124.973274 114.764389 120.957384 C 118.613167 116.189495 122.37839 115.103273 122.127723 122.210718 C 122.044168 126.393718 122.545501 135.845941 134.00828 129.574052 C 139.110391 126.811496 144.212503 121.625829 148.562614 117.526384 C 149.314614 116.85794 148.562614 116.10594 147.810614 116.774384 Z M 187.457728 116.774384 C 182.355616 121.208051 177.587727 125.725274 173.237616 127.90294 C 164.203171 132.503719 164.453837 125.307496 164.620948 121.291607 C 165.038726 112.09005 158.014837 113.259828 152.823948 119.954718 C 148.896836 124.973274 145.800058 132.080719 144.045391 133.589941 C 142.953947 131.328718 147.638281 120.706718 149.732392 116.85794 C 150.567947 115.270384 148.22317 114.769051 147.387614 116.440162 C 144.463169 121.709384 141.617058 129.908274 141.95128 133.757052 C 142.201947 135.929497 143.961836 136.43083 146.217836 133.506385 C 148.306725 130.74383 151.152836 124.973274 154.416726 120.957384 C 158.265504 116.189495 162.030726 115.103273 161.774837 122.210718 C 161.691282 126.393718 162.197837 135.845941 173.655394 129.574052 C 178.757505 126.811496 183.859616 121.625829 188.209728 117.526384 C 188.961728 116.85794 188.209728 116.10594 187.457728 116.774384 Z M 213.641952 116.85794 C 208.706952 121.709384 202.680507 127.563496 196.74284 130.74383 C 187.79195 135.595274 180.762838 132.503719 185.447172 122.461385 C 188.794617 122.377829 192.643395 121.625829 195.740173 119.286273 C 201.009395 115.35394 200.006729 109.917606 194.899395 111.33805 C 190.638061 112.507828 185.363617 117.025051 182.773394 123.636385 C 178.339727 134.92683 186.705728 138.692052 197.327729 132.587274 C 203.766729 128.989163 209.542507 122.879162 214.477508 117.442829 C 215.145952 116.774384 214.310396 116.189495 213.641952 116.85794 Z M 194.732284 113.426939 C 197.578395 112.758495 197.411284 115.604606 194.648728 117.60994 C 192.392728 119.369829 189.29595 119.871162 186.872839 119.954718 C 189.29595 116.273051 192.643395 114.011828 194.732284 113.426939 Z M 243.586176 116.85794 C 239.737398 120.706718 235.303731 125.056829 230.95362 128.320718 C 223.088953 134.091274 215.313063 135.344608 216.733508 127.47994 C 217.234841 124.973274 218.57173 121.709384 220.916508 118.111273 C 222.253397 116.356606 221.835619 115.604606 220.080952 115.855273 C 219.245397 116.022384 218.070397 116.273051 216.900619 116.356606 C 214.310396 116.523717 214.561063 115.604606 216.31573 113.594051 C 217.81973 112.006495 215.647285 111.170939 214.393952 112.591384 C 211.046507 116.607273 211.464285 119.119162 216.148619 118.78494 C 216.984174 118.696162 217.569063 118.612606 218.237508 118.529051 C 216.482841 121.458718 215.062396 124.722607 214.393952 127.819385 C 212.466952 138.023608 222.00273 137.522274 231.956287 129.741163 C 236.812954 125.892385 240.740065 121.542273 244.421732 117.442829 C 245.090176 116.774384 244.254621 116.189495 243.586176 116.85794 Z M 243.586176 116.85794" transform="matrix(0.748005, 0, 0, 0.748005, 65.339226, 37.964646)"/><g fill="#fff" fill-opacity="1"><g><g><path d="M 52.75 -60.195312 C 46.242188 -63.261719 26.96875 -61.820312 14.328125 -58.316406 C 1.5625 -54.75 1.753906 -50.621094 6.257812 -43.238281 C 9.136719 -38.542969 11.199219 -34.226562 11.828125 -29.035156 C 9.761719 -28.847656 4.253906 -28.34375 2.066406 -27.40625 C 0.25 -26.59375 0 -25.027344 1.125 -25.027344 C 1.625 -25.027344 2.191406 -25.40625 2.378906 -25.90625 C 2.378906 -25.96875 2.378906 -25.96875 2.441406 -25.96875 C 4.191406 -27.03125 9.949219 -27.46875 12.015625 -27.65625 C 12.140625 -25.40625 12.078125 -23.027344 11.699219 -20.398438 C 10.886719 -18.082031 5.945312 -2.816406 6.070312 -0.75 C 6.070312 0.5 7.445312 0.0625 7.882812 -0.8125 C 8.007812 -1 12.265625 -13.890625 13.265625 -20.523438 C 13.515625 -21.335938 14.453125 -24.152344 15.769531 -27.84375 C 23.464844 -28.28125 30.722656 -28.03125 30.972656 -28.03125 C 32.226562 -28.09375 32.851562 -29.972656 31.597656 -29.910156 C 26.09375 -29.785156 21.773438 -29.660156 16.269531 -29.347656 C 19.585938 -38.859375 24.777344 -52.5625 27.21875 -53.5625 C 27.28125 -53.5625 28.15625 -53.625 28.46875 -54.4375 C 28.847656 -55.5 27.34375 -55.753906 25.78125 -54.0625 C 22.589844 -50.746094 17.207031 -36.230469 14.703125 -29.285156 C 14.328125 -29.222656 13.890625 -29.222656 13.515625 -29.160156 C 12.828125 -34.976562 10.386719 -39.734375 7.632812 -44.238281 C 3.816406 -50.496094 2.878906 -54.1875 14.203125 -56.878906 C 26.09375 -59.695312 45.550781 -61.195312 51.433594 -58.503906 C 51.933594 -58.253906 52.8125 -57.753906 52.625 -57.066406 C 52.183594 -55.941406 53.9375 -55.941406 54.375 -57.066406 C 55 -58.628906 53.9375 -59.570312 52.75 -60.195312 Z M 14.203125 -27.78125 C 13.953125 -27.21875 13.828125 -26.71875 13.703125 -26.34375 C 13.703125 -26.84375 13.640625 -27.28125 13.640625 -27.71875 C 13.828125 -27.71875 14.015625 -27.78125 14.203125 -27.78125 Z M 14.203125 -27.78125" transform="translate(65.339226, 153.157457)"/></g></g></g><g fill="#fff" fill-opacity="1"><g><g><path d="M 25.90625 -27.78125 C 23.214844 -24.902344 19.210938 -20.523438 14.578125 -17.644531 C 10.136719 -14.828125 6.007812 -14.640625 7.007812 -19.710938 C 7.507812 -21.964844 8.511719 -24.152344 9.011719 -26.15625 C 9.699219 -28.910156 8.007812 -29.222656 5.882812 -26.53125 C 4.566406 -24.714844 3.441406 -22.714844 1.941406 -20.398438 C -0.75 -16.457031 -3.691406 -13.765625 -3.378906 -17.457031 C -3.066406 -21.273438 1.0625 -29.785156 3.316406 -26.78125 C 3.941406 -25.96875 5.757812 -27.40625 5.132812 -28.21875 C 1.5 -33.039062 -4.628906 -22.152344 -5.382812 -17.019531 C -5.882812 -12.515625 -1.4375 -12.078125 3.316406 -20.023438 C 4.503906 -22.027344 6.007812 -24.839844 6.882812 -26.15625 C 7.945312 -27.84375 8.257812 -27.21875 7.820312 -26.03125 C 7.195312 -24.464844 5.945312 -21.898438 5.320312 -19.460938 C 3.566406 -12.890625 9.136719 -12.328125 15.207031 -16.332031 C 19.335938 -19.023438 23.527344 -23.527344 26.59375 -27.34375 C 27.03125 -27.90625 26.40625 -28.28125 25.90625 -27.78125 Z M 25.90625 -27.78125" transform="translate(120.337952, 153.157457)"/></g></g></g><g fill="#fff" fill-opacity="1"><g><g><path d="M 29.972656 -27.84375 C 26.15625 -24.527344 22.589844 -21.148438 19.335938 -19.523438 C 12.578125 -16.082031 12.765625 -21.460938 12.890625 -24.464844 C 13.203125 -31.347656 7.945312 -30.472656 4.066406 -25.46875 C 1.125 -21.710938 -1.1875 -16.394531 -2.503906 -15.269531 C -3.316406 -16.957031 0.1875 -24.902344 1.753906 -27.78125 C 2.378906 -28.972656 0.625 -29.347656 0 -28.09375 C -2.191406 -24.152344 -4.316406 -18.019531 -4.066406 -15.140625 C -3.878906 -13.515625 -2.566406 -13.140625 -0.875 -15.332031 C 0.6875 -17.394531 2.816406 -21.710938 5.257812 -24.714844 C 8.132812 -28.28125 10.949219 -29.097656 10.761719 -23.777344 C 10.699219 -20.648438 11.074219 -13.578125 19.648438 -18.269531 C 23.464844 -20.335938 27.28125 -24.214844 30.535156 -27.28125 C 31.097656 -27.78125 30.535156 -28.34375 29.972656 -27.84375 Z M 29.972656 -27.84375" transform="translate(145.928941, 153.157457)"/></g></g></g><g fill="#fff" fill-opacity="1"><g><g><path d="M 29.972656 -27.84375 C 26.15625 -24.527344 22.589844 -21.148438 19.335938 -19.523438 C 12.578125 -16.082031 12.765625 -21.460938 12.890625 -24.464844 C 13.203125 -31.347656 7.945312 -30.472656 4.066406 -25.46875 C 1.125 -21.710938 -1.1875 -16.394531 -2.503906 -15.269531 C -3.316406 -16.957031 0.1875 -24.902344 1.753906 -27.78125 C 2.378906 -28.972656 0.625 -29.347656 0 -28.09375 C -2.191406 -24.152344 -4.316406 -18.019531 -4.066406 -15.140625 C -3.878906 -13.515625 -2.566406 -13.140625 -0.875 -15.332031 C 0.6875 -17.394531 2.816406 -21.710938 5.257812 -24.714844 C 8.132812 -28.28125 10.949219 -29.097656 10.761719 -23.777344 C 10.699219 -20.648438 11.074219 -13.578125 19.648438 -18.269531 C 23.464844 -20.335938 27.28125 -24.214844 30.535156 -27.28125 C 31.097656 -27.78125 30.535156 -28.34375 29.972656 -27.84375 Z M 29.972656 -27.84375" transform="translate(175.586957, 153.157457)"/></g></g></g><g fill="#fff" fill-opacity="1"><g><g><path d="M 19.898438 -27.78125 C 16.207031 -24.152344 11.699219 -19.773438 7.257812 -17.394531 C 0.5625 -13.765625 -4.691406 -16.082031 -1.1875 -23.589844 C 1.3125 -23.652344 4.191406 -24.214844 6.507812 -25.96875 C 10.449219 -28.910156 9.699219 -32.976562 5.882812 -31.910156 C 2.691406 -31.035156 -1.25 -27.65625 -3.191406 -22.714844 C -6.507812 -14.265625 -0.25 -11.449219 7.695312 -16.019531 C 12.515625 -18.710938 16.832031 -23.277344 20.523438 -27.34375 C 21.023438 -27.84375 20.398438 -28.28125 19.898438 -27.78125 Z M 5.757812 -30.347656 C 7.882812 -30.847656 7.757812 -28.722656 5.695312 -27.21875 C 4.003906 -25.90625 1.691406 -25.53125 -0.125 -25.46875 C 1.691406 -28.21875 4.191406 -29.910156 5.757812 -30.347656 Z M 5.757812 -30.347656" transform="translate(205.244973, 153.157457)"/></g></g></g><g fill="#fff" fill-opacity="1"><g><g><path d="M 22.714844 -27.78125 C 19.835938 -24.902344 16.519531 -21.648438 13.265625 -19.210938 C 7.382812 -14.890625 1.5625 -13.953125 2.628906 -19.835938 C 3.003906 -21.710938 4.003906 -24.152344 5.757812 -26.84375 C 6.757812 -28.15625 6.445312 -28.722656 5.132812 -28.53125 C 4.503906 -28.40625 3.628906 -28.21875 2.753906 -28.15625 C 0.8125 -28.03125 1 -28.722656 2.316406 -30.222656 C 3.441406 -31.410156 1.816406 -32.035156 0.875 -30.972656 C -1.625 -27.96875 -1.3125 -26.09375 2.191406 -26.34375 C 2.816406 -26.40625 3.253906 -26.46875 3.753906 -26.53125 C 2.441406 -24.339844 1.375 -21.898438 0.875 -19.585938 C -0.5625 -11.953125 6.570312 -12.328125 14.015625 -18.144531 C 17.644531 -21.023438 20.585938 -24.277344 23.339844 -27.34375 C 23.839844 -27.84375 23.214844 -28.28125 22.714844 -27.78125 Z M 22.714844 -27.78125" transform="translate(224.829275, 153.157457)"/></g></g></g><path fill="none" stroke="#fff" stroke-linecap="butt" stroke-linejoin="miter" stroke-miterlimit="4" stroke-opacity="1" stroke-width="1" d="M -0.00238789 0.500893 L 115.346065 0.500893" transform="matrix(0.748005, 0, 0, 0.748005, 239.884599, 131.793298)"/></svg>